<svg width="356" height="342" viewBox="0 0 356 342" fill="none" xmlns="http://www.w3.org/2000/svg">
<path d="M43.6669 342H116.126C80.8598 342 67.6719 312.275 73.8954 282.551C75.5254 274.934 77.4517 272.096 81.008 265.523L211.702 30.2696C214.814 25.1911 218.222 20.7101 221.482 17.1253C220.741 16.0797 220 15.4822 219.555 15.0341C195.699 -4.08494 163.988 -9.7609 139.242 30.2696L8.54851 265.673C4.84404 272.245 2.91773 275.083 1.43594 282.701C-4.6394 312.425 8.40035 342 43.6669 342Z" fill="#F5F5F5"/>
<path d="M282.762 342H355.184C321.565 340.803 308.976 311.766 315.048 282.579C316.677 274.946 318.603 272.102 322.157 265.516L341.855 229.893L305.718 164.635L249.883 265.516C246.181 272.102 244.255 274.946 242.774 282.579C236.702 311.766 249.143 340.803 282.762 342Z" fill="#F5F5F5"/>
<path fill-rule="evenodd" clip-rule="evenodd" d="M246.601 58.8455L282.708 123.856L203.835 265.806C200.136 272.367 198.212 275.2 196.732 282.804C190.665 311.88 203.243 340.956 236.835 342H185.042H164.473C130.881 340.807 118.303 311.88 124.37 282.804C125.998 275.2 127.922 272.367 131.473 265.806L246.601 58.8455Z" fill="#F5F5F5"/>
</svg>
