<svg width="120" height="120" viewBox="0 0 120 120" fill="none" xmlns="http://www.w3.org/2000/svg">
<path d="M114.288 37.1063C114.288 35.527 115.566 34.2502 117.144 34.2502C118.723 34.2502 120 35.5279 120 37.1063V97.1787C120 103.456 117.434 109.165 113.299 113.299C109.165 117.433 103.457 120 97.1787 120H22.8213C16.5444 120 10.8348 117.434 6.70094 113.299C2.56711 109.165 0 103.457 0 97.1787V22.8213C0 16.5444 2.5662 10.8348 6.70094 6.70094C10.8348 2.56711 16.5433 0 22.8213 0H84.9594C86.5386 0 87.8155 1.27774 87.8155 2.85607C87.8155 4.43529 86.5378 5.71215 84.9594 5.71215H22.8213C18.1191 5.71215 13.8443 7.63808 10.7399 10.7424C7.63912 13.8432 5.70965 18.1216 5.70965 22.8238V97.1812C5.70965 101.883 7.63558 106.158 10.7399 109.263C13.8407 112.363 18.1191 114.293 22.8213 114.293H97.1787C101.881 114.293 106.156 112.367 109.26 109.263C112.365 106.162 114.29 101.883 114.29 97.1812V37.1087L114.288 37.1063ZM24.2337 55.8006C23.1315 54.6798 23.1466 52.8753 24.2683 51.7732C25.3891 50.671 27.1936 50.6861 28.2957 51.8078L54.3231 78.3119L111.19 10.1471C112.193 8.93848 113.99 8.77443 115.195 9.7773C116.403 10.7802 116.567 12.5766 115.565 13.7852L56.7792 84.2495C56.695 84.3639 56.5965 84.4747 56.4893 84.5811C55.3685 85.6833 53.564 85.6682 52.4619 84.5465L24.2326 55.8042L24.2337 55.8006Z" fill="black"/>
</svg>
