<svg width="10" height="12" viewBox="0 0 10 12" fill="none" xmlns="http://www.w3.org/2000/svg">
<path d="M5.15112 0.00250112C2.71416 -0.0796255 0.712891 1.87139 0.712891 4.28979C0.712891 7.03441 3.34678 9.02627 4.82308 11.8908C4.89803 12.0363 5.1074 12.0365 5.18261 11.891C6.51814 9.31351 8.80072 7.58514 9.22373 5.10199C9.66173 2.53242 7.75623 0.0903287 5.15112 0.00250112ZM5.00264 6.53679C3.76167 6.53679 2.75564 5.53073 2.75564 4.28979C2.75564 3.04885 3.76169 2.04279 5.00264 2.04279C6.2436 2.04279 7.24966 3.04885 7.24966 4.28979C7.24966 5.53073 6.2436 6.53679 5.00264 6.53679Z" fill="#2091FF"/>
</svg>
