<svg width="12" height="12" viewBox="0 0 12 12" fill="none" xmlns="http://www.w3.org/2000/svg">
<g clip-path="url(#clip0_98_4095)">
<path d="M7.95508 6.0615L12.0006 8.619V3.396L7.95508 6.0615Z" fill="#2091FF"/>
<path d="M0 3.396V8.619L4.0455 6.0615L0 3.396Z" fill="#2091FF"/>
<path d="M11.2509 1.875H0.750937C0.376687 1.875 0.0796875 2.154 0.0234375 2.51325L6.00094 6.4515L11.9784 2.51325C11.9222 2.154 11.6252 1.875 11.2509 1.875Z" fill="#2091FF"/>
<path d="M7.26694 6.51454L6.20569 7.21354C6.14269 7.25479 6.07144 7.27504 5.99944 7.27504C5.92744 7.27504 5.85619 7.25479 5.79319 7.21354L4.73194 6.51379L0.0234375 9.49204C0.0811875 9.84829 0.376687 10.125 0.749438 10.125H11.2494C11.6222 10.125 11.9177 9.84829 11.9754 9.49204L7.26694 6.51454Z" fill="#2091FF"/>
</g>
<defs>
<clipPath id="clip0_98_4095">
<rect width="12" height="12" fill="white"/>
</clipPath>
</defs>
</svg>
