<svg width="12" height="12" viewBox="0 0 12 12" fill="none" xmlns="http://www.w3.org/2000/svg">
<path d="M5.9999 0C2.68628 0 0 2.68636 0 5.9999C0 9.31343 2.68628 12 5.9999 12C9.31351 12 12 9.31343 12 5.9999C12 2.68636 9.31351 0 5.9999 0ZM8.59382 7.14108H6.0501C6.0415 7.14108 6.0335 7.139 6.02498 7.13868C6.01646 7.13908 6.0085 7.14108 5.99986 7.14108C5.7707 7.14108 5.58489 6.95528 5.58489 6.72611V2.49C5.58489 2.26084 5.7707 2.07503 5.99986 2.07503C6.22902 2.07503 6.41483 2.26084 6.41483 2.49V6.31115H8.59366C8.82283 6.31115 9.00863 6.49695 9.00863 6.72611C9.00863 6.95528 8.82299 7.14108 8.59382 7.14108Z" fill="#2091FF"/>
</svg>
