<svg width="12" height="12" viewBox="0 0 12 12" fill="none" xmlns="http://www.w3.org/2000/svg">
<g opacity="0.5">
<path d="M11.8082 6.46637L7.47457 10.8001C7.35086 10.9238 7.18599 10.9917 7.01019 10.9917C6.83419 10.9917 6.66941 10.9237 6.5457 10.8001L6.15224 10.4065C6.02863 10.283 5.96054 10.118 5.96054 9.94215C5.96054 9.76634 6.02863 9.59581 6.15224 9.4723L8.68041 6.93856H0.648287C0.286144 6.93856 0 6.65505 0 6.29281V5.73643C0 5.37418 0.286144 5.06209 0.648287 5.06209H8.7091L6.15234 2.51421C6.02873 2.3905 5.96063 2.23001 5.96063 2.05411C5.96063 1.87841 6.02873 1.71558 6.15234 1.59197L6.5458 1.19968C6.6695 1.07598 6.83428 1.00856 7.01028 1.00856C7.18609 1.00856 7.35096 1.07685 7.47467 1.20056L11.8083 5.53418C11.9323 5.65828 12.0005 5.82394 12 6.00003C12.0004 6.17671 11.9323 6.34247 11.8082 6.46637Z" fill="white"/>
</g>
</svg>
