<svg width="8" height="8" viewBox="0 0 8 8" fill="none" xmlns="http://www.w3.org/2000/svg">
<g clip-path="url(#clip0_601_1153)">
<path d="M2.03165 0.127871L1.76778 0.389922C1.68537 0.472394 1.63997 0.582119 1.63997 0.699388C1.63997 0.816592 1.68537 0.926447 1.76778 1.00892L4.7572 3.99821L1.76446 6.99095C1.68205 7.07329 1.63672 7.18315 1.63672 7.30035C1.63672 7.41756 1.68205 7.52748 1.76446 7.60988L2.02671 7.872C2.19724 8.04267 2.47503 8.04267 2.64557 7.872L6.2216 4.30878C6.30394 4.22644 6.36196 4.11672 6.36196 3.99847L6.36196 3.99711C6.36196 3.87984 6.30388 3.77011 6.2216 3.68777L2.65526 0.127871C2.57292 0.0453991 2.45988 0.000130141 2.34268 -3.08584e-08C2.22541 -2.57324e-08 2.11393 0.0453992 2.03165 0.127871Z" fill="#2091FF"/>
</g>
<defs>
<clipPath id="clip0_601_1153">
<rect width="8" height="8" fill="white" transform="translate(0 8) rotate(-90)"/>
</clipPath>
</defs>
</svg>
