<svg width="13" height="3" viewBox="0 0 13 3" fill="none" xmlns="http://www.w3.org/2000/svg">
<path d="M0.514086 3C0.382086 3 0.274086 2.958 0.190086 2.874C0.106086 2.79 0.064086 2.682 0.064086 2.55V0.534C0.064086 0.402 0.106086 0.294 0.190086 0.21C0.274086 0.126 0.382086 0.084 0.514086 0.084H2.53009C2.66209 0.084 2.77009 0.126 2.85409 0.21C2.93809 0.294 2.98009 0.402 2.98009 0.534V2.55C2.98009 2.682 2.93809 2.79 2.85409 2.874C2.77009 2.958 2.66209 3 2.53009 3H0.514086ZM5.4887 3C5.3567 3 5.2487 2.958 5.1647 2.874C5.0807 2.79 5.0387 2.682 5.0387 2.55V0.534C5.0387 0.402 5.0807 0.294 5.1647 0.21C5.2487 0.126 5.3567 0.084 5.4887 0.084H7.5047C7.6367 0.084 7.7447 0.126 7.8287 0.21C7.9127 0.294 7.9547 0.402 7.9547 0.534V2.55C7.9547 2.682 7.9127 2.79 7.8287 2.874C7.7447 2.958 7.6367 3 7.5047 3H5.4887ZM10.4633 3C10.3313 3 10.2233 2.958 10.1393 2.874C10.0553 2.79 10.0133 2.682 10.0133 2.55V0.534C10.0133 0.402 10.0553 0.294 10.1393 0.21C10.2233 0.126 10.3313 0.084 10.4633 0.084H12.4793C12.6113 0.084 12.7193 0.126 12.8033 0.21C12.8873 0.294 12.9293 0.402 12.9293 0.534V2.55C12.9293 2.682 12.8873 2.79 12.8033 2.874C12.7193 2.958 12.6113 3 12.4793 3H10.4633Z" fill="black"/>
</svg>
