<svg width="112" height="30" viewBox="0 0 112 30" fill="none" xmlns="http://www.w3.org/2000/svg">
<path d="M98.0186 26.0134L100.18 29.6628H98.0186V26.0134Z" fill="#FFCB00"/>
<path d="M111.175 9.06445V21.0282H104.146V23.6536H107.159L103.851 29.2204V29.6629H103.687L100.724 25.1454L103.417 21.0282H100.075L98.0189 24.4121V17.914H95.0479V29.6629H93.4634V26.8984H90.5811V9.06445H111.175Z" fill="#FFCB00"/>
<path d="M108.011 27.0207L111.176 21.6772V27.0207H108.011Z" fill="#FFCB00"/>
<path d="M23.4381 25.6596V13.9656H19.0723V29.604H29.0007V25.6596H23.4381V25.6596Z" fill="white"/>
<path d="M38.2887 13.5693C33.2613 13.5693 29.6709 17.008 29.6709 21.7868C29.6709 26.5655 33.2613 30 38.2887 30C43.2993 30 46.8728 26.574 46.8728 21.7868C46.8728 16.9912 43.2993 13.5693 38.2887 13.5693ZM38.2887 25.9882C35.9078 25.9882 34.1588 24.2183 34.1588 21.7868C34.1588 19.351 35.9077 17.5769 38.2887 17.5769C40.6655 17.5769 42.3889 19.3384 42.3889 21.7868C42.3889 24.2352 40.6655 25.9882 38.2887 25.9882Z" fill="white"/>
<path d="M58.8528 13.9656V22.1704L52.8477 13.9656H49.0762V29.604H53.2565V21.1168L59.4638 29.604H63.0289V13.9656H58.8528Z" fill="white"/>
<path d="M66.0596 13.9656V29.604H70.4254V13.9656H66.0596Z" fill="white"/>
<path d="M83.2317 13.9656V22.1704L77.2266 13.9656H73.4551V29.604H77.6313V21.1168L83.8428 29.604H87.4079V13.9656H83.2317Z" fill="white"/>
<path d="M2.58677 5.36017C1.49529 5.17896 0.530248 5.01463 0.530248 4.01168C0.530248 3.16887 1.31411 2.60417 2.51095 2.60417C3.72033 2.60417 4.46201 3.16465 4.52951 4.1086H4.90873C4.84556 2.95395 3.93947 2.23755 2.51516 2.23755C1.10341 2.23755 0.142584 2.95816 0.142584 4.02009C0.142584 5.33488 1.33942 5.54139 2.49829 5.74366C3.60233 5.92908 4.69381 6.13135 4.69381 7.29444C4.69381 8.22154 3.84677 8.81993 2.5699 8.81993C1.30146 8.81993 0.505041 8.24261 0.399691 7.24388H0.0078125C0.113162 8.45753 1.0529 9.195 2.56146 9.195C4.07436 9.195 5.08569 8.43225 5.08569 7.28182C5.08569 5.79423 3.7583 5.55403 2.58677 5.36017Z" fill="white"/>
<path d="M9.35443 8.68947C8.30935 8.68947 7.71088 8.0742 7.71088 7.01649V2.73076H10.1424V2.38101H7.71088V0.400391H7.31478V2.38101H5.77246V2.73076H7.31478V7.03334C7.31478 8.30178 8.07333 9.06875 9.32068 9.06875H10.1972V8.68947H9.35443Z" fill="white"/>
<path d="M16.7211 2.36841V6.21164C16.7211 7.80879 15.794 8.80753 14.298 8.80753C12.802 8.80753 11.8707 7.81299 11.8707 6.21164V2.36841H11.4746V6.25799C11.4746 8.04478 12.5702 9.19522 14.298 9.19522C16.0257 9.19522 17.1172 8.04478 17.1172 6.25799V2.36841H16.7211Z" fill="white"/>
<path d="M25.2842 0V4.05394C24.7321 2.95407 23.628 2.23767 22.2542 2.23767C20.2947 2.23767 18.8408 3.73366 18.8408 5.7185C18.8408 7.6949 20.2947 9.19511 22.2542 9.19511C23.6364 9.19511 24.7447 8.47028 25.2926 7.35779L25.3473 9.06448H25.6803V0H25.2842ZM22.2753 8.80743C20.5433 8.80743 19.2411 7.47576 19.2411 5.71851C19.2411 3.94859 20.5433 2.62536 22.2753 2.62536C24.0241 2.62536 25.3009 3.93596 25.3009 5.71851C25.3009 7.49683 24.024 8.80743 22.2753 8.80743Z" fill="white"/>
<path d="M28.1201 2.36837V9.06454H28.5162V2.36837H28.1201ZM28.0273 0.189697V0.880812H28.6089V0.189697H28.0273Z" fill="white"/>
<path d="M33.8513 2.23755C31.8622 2.23755 30.3662 3.71248 30.3662 5.71838C30.3662 7.70741 31.8622 9.19499 33.8513 9.19499C35.8487 9.19499 37.3363 7.70741 37.3363 5.71838C37.3363 3.72513 35.8487 2.23755 33.8513 2.23755ZM33.8513 8.80731C32.0898 8.80731 30.7665 7.4883 30.7665 5.71838C30.7665 3.93584 32.0814 2.62524 33.8513 2.62524C35.6212 2.62524 36.9318 3.94425 36.9318 5.71838C36.9318 7.4883 35.6211 8.80731 33.8513 8.80731Z" fill="white"/>
<path d="M8.65456 23.5345C9.62121 23.5345 10.4048 22.7508 10.4048 21.7842C10.4048 20.8176 9.62121 20.0339 8.65456 20.0339C7.68792 20.0339 6.9043 20.8176 6.9043 21.7842C6.9043 22.7508 7.68792 23.5345 8.65456 23.5345Z" fill="#FFCB00"/>
<path d="M12.4897 23.5356V25.7817H8.49479C6.29505 25.7817 4.49564 23.9907 4.49564 21.7868C4.49564 19.5786 6.29506 17.7876 8.49479 17.7876C10.0751 17.7876 11.4404 18.7063 12.0894 20.0337H16.5226C15.7219 16.338 12.4308 13.5693 8.49479 13.5693C3.96044 13.5693 0.277344 17.244 0.277344 21.7868C0.277337 26.3211 3.96044 30 8.49479 30H16.7122V23.5356H12.4897Z" fill="white"/>
</svg>
