<svg width="10" height="12" viewBox="0 0 10 12" fill="none" xmlns="http://www.w3.org/2000/svg">
<path d="M4.99213 0C2.38599 0 0.265625 2.12036 0.265625 4.72659C0.265625 5.8093 1.0267 7.32715 2.5278 9.23785C3.62177 10.6305 4.6976 11.7063 4.74283 11.7514L4.99213 12L5.24152 11.7514C5.28674 11.7063 6.36258 10.6305 7.45663 9.23785C8.95764 7.32715 9.71872 5.8093 9.71872 4.7265C9.71872 2.12036 7.59836 0 4.99213 0V0ZM4.99213 7.32083C3.40717 7.32083 2.11774 6.0314 2.11774 4.44644C2.11774 2.86148 3.40717 1.57196 4.99213 1.57196C6.57709 1.57196 7.86661 2.86148 7.86661 4.44644C7.86661 6.0314 6.57709 7.32083 4.99213 7.32083Z" fill="#2091FF"/>
</svg>
