<svg width="168" height="40" viewBox="0 0 168 40" fill="none" xmlns="http://www.w3.org/2000/svg">
<path d="M99.7163 9.7352C99.5636 9.59842 99.4277 9.35905 99.3259 9H98.8506V14.2148H99.3259C99.4277 13.8558 99.5466 13.6164 99.6994 13.4796C99.8521 13.3428 100.073 13.2745 100.378 13.2745H106.574V28.5941C106.574 28.9019 106.507 29.1412 106.371 29.2951C106.235 29.449 105.997 29.5858 105.641 29.6713V30.15H111.905V29.6713C111.548 29.5687 111.311 29.449 111.175 29.2951C111.039 29.1412 110.971 28.9019 110.971 28.5941V13.2745H117.167C117.473 13.2745 117.693 13.3428 117.846 13.4796C117.999 13.6164 118.135 13.8558 118.22 14.2148H118.695V9H118.22C118.118 9.35905 117.999 9.59842 117.846 9.7352C117.693 9.87199 117.456 9.94038 117.167 9.94038H100.395C100.107 9.94038 99.8861 9.87199 99.7163 9.7352Z" fill="#2091FF"/>
<path d="M82.2999 29.654C81.6378 29.483 81.3153 29.1923 81.3153 28.7478C81.3153 28.5255 81.4172 28.2178 81.6039 27.8074L82.9619 24.9521H92.0098L93.4018 27.8074C93.6055 28.2178 93.6904 28.5255 93.6904 28.7307C93.6904 29.2436 93.3679 29.5343 92.7228 29.654V30.1327H100.124V29.654C99.7167 29.5685 99.3941 29.4146 99.1395 29.1752C98.9018 28.9359 98.6133 28.4913 98.2907 27.8245L90.6518 12.2655C90.4651 11.9064 90.3802 11.5816 90.3802 11.2909C90.3802 10.8806 90.6688 10.5899 91.2459 10.4189V9.94019H84.1332V10.4189C84.7104 10.6241 84.982 10.9319 84.982 11.3935C84.982 11.6842 84.8632 12.0774 84.6255 12.5732L77.2412 28.081C76.9866 28.6452 76.7489 29.0384 76.5452 29.2265C76.3415 29.4317 76.0359 29.5514 75.6455 29.6369V30.1156H82.2829V29.654H82.2999ZM87.5283 15.0695L90.7536 22.1993H84.252L87.5283 15.0695Z" fill="#2091FF"/>
<path d="M142.97 10.4189V9.94019H135.229V10.4189C135.534 10.4702 135.772 10.5728 135.959 10.7438C136.129 10.8977 136.213 11.1028 136.213 11.3251C136.213 11.5303 136.01 11.9235 135.619 12.5049L131.885 17.942L128.269 12.5049C127.862 11.9064 127.658 11.5132 127.658 11.3422C127.658 10.8464 127.98 10.5386 128.642 10.436V9.95728H120.715V10.436C121.156 10.5044 121.53 10.6583 121.852 10.9319C122.175 11.2054 122.616 11.7355 123.159 12.522L129.644 21.7035V28.611C129.644 28.9188 129.576 29.141 129.44 29.312C129.304 29.4659 129.067 29.6027 128.71 29.6882V30.1669H134.974V29.6882C134.635 29.5856 134.38 29.4659 134.244 29.312C134.108 29.1581 134.041 28.9188 134.041 28.611V21.7035L140.525 12.522C141.085 11.7355 141.51 11.2054 141.832 10.9319C142.155 10.6412 142.528 10.4702 142.97 10.4189Z" fill="#2091FF"/>
<path d="M69.9584 29.7908C70.8412 29.5514 71.6051 29.1752 72.2671 28.6623C73.5742 27.6193 74.2363 26.166 74.2363 24.3195C74.2363 21.9941 73.1159 20.4041 70.8581 19.5492C72.6745 18.6772 73.5742 17.258 73.5742 15.2918C73.5742 13.5307 72.9801 12.18 71.7918 11.2396C71.1977 10.7609 70.5017 10.436 69.7038 10.2309C68.906 10.0257 67.8535 9.94019 66.5634 9.94019H53V10.4189C53.3565 10.5215 53.5941 10.6412 53.7299 10.7951C53.8657 10.949 53.9336 11.1883 53.9336 11.4961V28.5768C53.9336 28.8846 53.8657 29.1239 53.7299 29.2778C53.5941 29.4317 53.3565 29.5685 53 29.654V30.1327H66.6992C67.9893 30.1498 69.0757 30.0301 69.9584 29.7908ZM58.3133 13.2572H65.9862C67.1575 13.2572 67.9723 13.4452 68.4646 13.8043C68.9569 14.1633 69.1946 14.7618 69.1946 15.6167C69.1946 16.4374 68.9399 17.0529 68.4137 17.4461C67.9553 17.7881 67.1405 17.9591 65.9692 17.9591H58.2963V13.2572H58.3133ZM58.3133 26.8157V21.2931H65.7485C67.1405 21.2931 68.1421 21.4812 68.7362 21.8745C69.4322 22.3361 69.7717 23.0542 69.7717 24.063C69.7717 25.0718 69.4322 25.7899 68.7362 26.2515C68.1251 26.6277 67.1236 26.8328 65.7485 26.8328H58.3133V26.8157Z" fill="#2091FF"/>
<path d="M165.887 29.1926C165.565 28.9019 165.072 28.2864 164.376 27.3118L160.472 21.755C164.105 21.1908 165.921 19.2588 165.921 15.9589C165.921 14.9843 165.735 14.0781 165.378 13.2232C164.988 12.3512 164.41 11.6502 163.647 11.1373C162.984 10.6927 162.204 10.385 161.304 10.1969C160.404 10.0259 159.199 9.92334 157.671 9.92334H145.109V10.4021C145.466 10.5047 145.704 10.6244 145.839 10.7782C145.975 10.9321 146.043 11.1715 146.043 11.4792V28.5771C146.043 28.8677 145.975 29.1071 145.839 29.261C145.704 29.4149 145.466 29.5516 145.109 29.6371V30.1159H151.373V29.6371C151.034 29.5516 150.796 29.432 150.643 29.261C150.508 29.1071 150.44 28.8677 150.44 28.5771V21.8918H155.753L159.844 27.8248C160.302 28.5087 160.54 28.9361 160.54 29.1071C160.54 29.3807 160.285 29.5516 159.793 29.6371V30.1159H167.042V29.6371C166.6 29.6371 166.21 29.4661 165.887 29.1926ZM159.335 18.4722C158.927 18.5406 158.214 18.5577 157.213 18.5577H150.457V13.2574H157.213C158.231 13.2574 158.944 13.2745 159.335 13.3429C159.725 13.3942 160.099 13.531 160.455 13.7191C161.202 14.1294 161.576 14.8475 161.576 15.9076C161.576 16.9676 161.202 17.7029 160.455 18.0961C160.133 18.3013 159.742 18.421 159.335 18.4722Z" fill="#2091FF"/>
<path d="M5.0025 39.111H13.3035C9.26333 39.111 7.75252 35.7085 8.46548 32.3061C8.65221 31.4341 8.8729 31.1092 9.28031 30.3569L24.2526 3.42785C24.6091 2.84652 24.9995 2.33359 25.373 1.92324C25.2881 1.80355 25.2033 1.73516 25.1523 1.68387C22.4193 -0.504652 18.7865 -1.15437 15.9516 3.42785L0.97932 30.374C0.554934 31.1263 0.334256 31.4512 0.164502 32.3232C-0.531491 35.7256 0.962347 39.111 5.0025 39.111Z" fill="#2091FF"/>
<path d="M32.4173 39.111H40.7183C36.8649 38.9742 35.422 35.6573 36.118 32.3232C36.3047 31.4512 36.5254 31.1263 36.9328 30.374L39.1905 26.3047L35.0485 18.8501L28.6488 30.374C28.2244 31.1263 28.0037 31.4512 27.834 32.3232C27.138 35.6573 28.5639 38.9742 32.4173 39.111Z" fill="#2091FF"/>
<path fill-rule="evenodd" clip-rule="evenodd" d="M28.2754 6.64209L32.4174 14.0967L23.3695 30.3739C22.9451 31.1262 22.7244 31.451 22.5546 32.323C21.8587 35.6571 23.3016 38.9912 27.155 39.1108H21.2136H18.854C15.0006 38.9741 13.5577 35.6571 14.2537 32.323C14.4404 31.451 14.6611 31.1262 15.0685 30.3739L28.2754 6.64209Z" fill="#FFCB00"/>
</svg>
