<svg width="12" height="12" viewBox="0 0 12 12" fill="none" xmlns="http://www.w3.org/2000/svg">
<path fill-rule="evenodd" clip-rule="evenodd" d="M4.60659 7.3945C5.35326 8.14117 6.17348 8.74209 7.01185 9.18382L8.58484 7.57928L11.4452 8.23884C11.7426 8.30793 12.001 8.48823 12.001 8.79316V10.7762C12.001 11.4132 11.5097 11.939 10.8742 11.9826C8.38345 12.1555 5.50631 11.0347 3.23625 8.76475C0.964784 6.49318 -0.152916 3.61601 0.0168225 1.12677C0.0604269 0.491298 0.586185 0 1.22324 0H3.2063C3.51124 0 3.69304 0.256851 3.76213 0.554326L4.42169 3.41618L2.81725 4.98926C3.25898 5.82603 3.85989 6.64638 4.60656 7.39453L4.60659 7.3945Z" fill="#2091FF"/>
</svg>
