<svg width="56" height="56" viewBox="0 0 56 56" fill="none" xmlns="http://www.w3.org/2000/svg">
<path d="M52.0798 25.3053L50.6296 19.5046C51.0261 19.4204 51.3236 19.0687 51.3236 18.6472V17.712C51.3236 15.6813 49.6715 14.0293 47.6409 14.0293H41.0355V12.1001C41.0355 11.1009 40.2227 10.288 39.2234 10.288H5.55319C4.55394 10.288 3.74106 11.1009 3.74106 12.1001V28C3.74106 28.4842 4.13361 28.8769 4.61792 28.8769C5.10213 28.8769 5.49478 28.4843 5.49478 28V12.1001C5.49478 12.0679 5.52092 12.0417 5.55319 12.0417H39.2233C39.2556 12.0417 39.2817 12.0679 39.2817 12.1001V28.0002C39.2817 28.4844 39.6743 28.8771 40.1586 28.8771C40.6428 28.8771 41.0354 28.4845 41.0354 28.0002V27.0062H51.3789C51.3798 27.0062 51.3804 27.0064 51.3812 27.0064C51.3821 27.0064 51.3828 27.0063 51.3836 27.0063C52.6564 27.0072 53.7371 27.8426 54.1084 28.9938H51.3819C50.8977 28.9938 50.505 29.3863 50.505 29.8706V31.7412C50.505 33.2561 51.7374 34.4886 53.2524 34.4886H54.2462V38.3465H51.9535C51.2003 36.1718 49.133 34.6054 46.7054 34.6054C44.2778 34.6054 42.2104 36.1718 41.4574 38.3465H41.0352V31.7411C41.0352 31.2569 40.6427 30.8642 40.1583 30.8642C39.6741 30.8642 39.2815 31.2567 39.2815 31.7411V38.3463H21.0894C20.3362 36.1716 18.2689 34.6052 15.8413 34.6052C13.4138 34.6052 11.3463 36.1716 10.5933 38.3463H5.55319C5.52092 38.3463 5.49478 38.3202 5.49478 38.2879V36.3589H9.29436C9.77856 36.3589 10.1712 35.9663 10.1712 35.482C10.1712 34.9977 9.77867 34.6052 9.29436 34.6052H0.876859C0.392656 34.6052 0 34.9977 0 35.482C0 35.9663 0.392547 36.3589 0.876859 36.3589H3.74117V38.2879C3.74117 39.2872 4.55405 40.1 5.5533 40.1H10.2897C10.2895 40.1195 10.2881 40.1389 10.2881 40.1584C10.2881 43.2205 12.7794 45.7116 15.8413 45.7116C18.9033 45.7116 21.3945 43.2205 21.3945 40.1584C21.3945 40.1388 21.3932 40.1195 21.393 40.1H41.1538C41.1535 40.1195 41.1522 40.1389 41.1522 40.1584C41.1522 43.2205 43.6435 45.7116 46.7054 45.7116C49.7674 45.7116 52.2586 43.2205 52.2586 40.1584C52.2586 40.1388 52.2573 40.1195 52.2571 40.1H55.123C55.6072 40.1 55.9999 39.7075 55.9999 39.2232V29.8704C56 27.5613 54.2963 25.6427 52.0798 25.3053ZM41.0355 15.7829H47.6409C48.7046 15.7829 49.57 16.6483 49.57 17.712V17.7704H41.0355V15.7829ZM41.0355 25.2526V19.524H48.8269L50.259 25.2526H41.0355ZM15.8413 43.9582C13.7463 43.9582 12.0417 42.2539 12.0417 40.1587C12.0417 38.0635 13.7463 36.3591 15.8413 36.3591C17.9364 36.3591 19.6409 38.0635 19.6409 40.1587C19.6409 42.2539 17.9364 43.9582 15.8413 43.9582ZM46.7056 43.9582C44.6106 43.9582 42.9061 42.2539 42.9061 40.1587C42.9061 38.0635 44.6106 36.3591 46.7056 36.3591C48.8007 36.3591 50.5052 38.0635 50.5052 40.1587C50.5052 42.2539 48.8007 43.9582 46.7056 43.9582ZM54.2464 32.7348H53.2526C52.7046 32.7348 52.2588 32.289 52.2588 31.7411V30.7473H54.2463V32.7348H54.2464Z" fill="black"/>
<path d="M15.8414 38.3466C14.8422 38.3466 14.0293 39.1595 14.0293 40.1587C14.0293 41.158 14.8422 41.9709 15.8414 41.9709C16.8407 41.9709 17.6535 41.158 17.6535 40.1587C17.6535 39.1595 16.8407 38.3466 15.8414 38.3466Z" fill="black"/>
<path d="M46.7057 38.3466C45.7064 38.3466 44.8936 39.1595 44.8936 40.1587C44.8936 41.158 45.7064 41.9709 46.7057 41.9709C47.7049 41.9709 48.5178 41.158 48.5178 40.1587C48.5178 39.1595 47.7049 38.3466 46.7057 38.3466Z" fill="black"/>
<path d="M36.4171 34.6054H23.3231C22.8389 34.6054 22.4463 34.998 22.4463 35.4823C22.4463 35.9666 22.8388 36.3591 23.3231 36.3591H36.4171C36.9013 36.3591 37.2939 35.9666 37.2939 35.4823C37.2939 34.998 36.9014 34.6054 36.4171 34.6054Z" fill="#2091FF"/>
<path d="M13.9704 30.8643H2.74698C2.26277 30.8643 1.87012 31.2569 1.87012 31.7412C1.87012 32.2255 2.26266 32.618 2.74698 32.618H13.9704C14.4546 32.618 14.8472 32.2255 14.8472 31.7412C14.8472 31.2569 14.4546 30.8643 13.9704 30.8643Z" fill="#2091FF"/>
<path d="M30.4912 18.9623C30.1488 18.62 29.5935 18.62 29.2512 18.9624L21.4536 26.7599L17.3972 22.7035C17.0548 22.361 16.4996 22.361 16.1572 22.7035C15.8148 23.0459 15.8148 23.601 16.1572 23.9435L20.8337 28.6199C21.0048 28.7912 21.2293 28.8767 21.4536 28.8767C21.6779 28.8767 21.9025 28.7912 22.0735 28.6199L30.4911 20.2024C30.8335 19.8598 30.8335 19.3048 30.4912 18.9623Z" fill="#2091FF"/>
</svg>
