<svg width="56" height="56" viewBox="0 0 56 56" fill="none" xmlns="http://www.w3.org/2000/svg">
<g clip-path="url(#clip0_601_1692)">
<path d="M25.0945 16.0038L24.5527 9.50228C24.5173 9.07714 24.1619 8.75011 23.7353 8.75011H22.9151V7.92969C22.9151 6.57267 21.8111 5.46875 20.4541 5.46875C19.0971 5.46875 17.9932 6.57267 17.9932 7.92969V8.75011H17.173C16.7516 8.75011 16.3987 9.06937 16.3567 9.48872L15.7004 16.0512C15.6773 16.2819 15.7529 16.5115 15.9084 16.6833C16.0639 16.8551 16.2849 16.9531 16.5166 16.9531H24.282C24.2828 16.9531 24.2835 16.9531 24.2842 16.9531C24.7373 16.9531 25.1045 16.5858 25.1045 16.1328C25.1045 16.089 25.101 16.0458 25.0945 16.0038ZM19.6338 7.92969C19.6338 7.47731 20.0018 7.10938 20.4541 7.10938C20.9065 7.10938 21.2744 7.47731 21.2744 7.92969V8.75011H19.6338V7.92969ZM17.423 15.3126L17.9153 10.3907H22.9805L23.3905 15.3126H17.423Z" fill="#2091FF"/>
<path d="M46.8621 7.30078C46.8602 7.28077 46.8567 7.2613 46.8533 7.24183C46.8521 7.23494 46.8514 7.22794 46.8501 7.22116C46.8455 7.19797 46.8395 7.17522 46.8328 7.15269C46.832 7.14973 46.8314 7.14656 46.8305 7.14361C46.8235 7.12064 46.8152 7.09822 46.8064 7.07613C46.8054 7.0735 46.8045 7.07088 46.8035 7.06825C46.7948 7.04714 46.7848 7.02658 46.7743 7.00645C46.7725 7.00295 46.771 6.99923 46.7692 6.99573C46.7591 6.97703 46.748 6.95887 46.7365 6.94105C46.7334 6.93634 46.7309 6.93142 46.7277 6.92672C46.7162 6.90966 46.7038 6.89336 46.6911 6.87717C46.6873 6.87225 46.6839 6.867 46.6799 6.86219C46.6629 6.84152 46.6449 6.8215 46.6259 6.80258L40.0641 0.240406C40.0451 0.221484 40.0252 0.203438 40.0044 0.186375C39.9991 0.182 39.9933 0.178281 39.9879 0.174016C39.9723 0.161766 39.9565 0.149625 39.94 0.138578C39.9349 0.135078 39.9294 0.132234 39.9242 0.128953C39.9068 0.117906 39.8893 0.106969 39.8711 0.0972344C39.8671 0.0950469 39.8629 0.0934062 39.8589 0.0913281C39.8391 0.0811562 39.8191 0.0713125 39.7985 0.0627813C39.7955 0.0615781 39.7925 0.0607031 39.7895 0.0596094C39.7678 0.0508594 39.7457 0.0426563 39.723 0.0357656C39.7197 0.0347812 39.7163 0.034125 39.7131 0.03325C39.6908 0.0267969 39.6683 0.0207813 39.6454 0.0161875C39.6385 0.0147656 39.6314 0.0142188 39.6245 0.0130156C39.6051 0.009625 39.5856 0.00623437 39.5657 0.00426563C39.5386 0.00142188 39.5113 0 39.4838 0H9.9541C9.50107 0 9.13379 0.367281 9.13379 0.820312V50.4191C9.13379 50.8722 9.50107 51.2395 9.9541 51.2395H28.5477C29.0008 51.2395 29.3681 50.8722 29.3681 50.4191C29.3681 49.9661 29.0008 49.5988 28.5477 49.5988H10.7744V1.64062H38.6635V7.38259C38.6635 7.83563 39.0308 8.20291 39.4838 8.20291H45.2256V49.5988H40.579C40.126 49.5988 39.7587 49.9661 39.7587 50.4191C39.7587 50.8722 40.126 51.2395 40.579 51.2395H46.0459C46.4989 51.2395 46.8662 50.8722 46.8662 50.4191V7.38259C46.8662 7.35514 46.8649 7.3278 46.8621 7.30078ZM40.3041 6.56228V2.80077L44.0655 6.56228H40.3041Z" fill="black"/>
<path d="M39.4841 23.3508H16.5166C16.0636 23.3508 15.6963 23.7181 15.6963 24.1711C15.6963 24.6241 16.0636 24.9914 16.5166 24.9914H39.4841C39.9371 24.9914 40.3044 24.6241 40.3044 24.1711C40.3044 23.7181 39.9371 23.3508 39.4841 23.3508Z" fill="black"/>
<path d="M39.4841 27.7268H16.5166C16.0636 27.7268 15.6963 28.0941 15.6963 28.5471C15.6963 29.0002 16.0636 29.3674 16.5166 29.3674H39.4841C39.9371 29.3674 40.3044 29.0002 40.3044 28.5471C40.3044 28.0941 39.9371 27.7268 39.4841 27.7268Z" fill="black"/>
<path d="M39.4841 32.1017H16.5166C16.0636 32.1017 15.6963 32.469 15.6963 32.922C15.6963 33.3751 16.0636 33.7423 16.5166 33.7423H39.4841C39.9371 33.7423 40.3044 33.3751 40.3044 32.922C40.3044 32.469 39.9371 32.1017 39.4841 32.1017Z" fill="black"/>
<path d="M26.3597 36.4767H16.5166C16.0636 36.4767 15.6963 36.844 15.6963 37.297C15.6963 37.7501 16.0636 38.1173 16.5166 38.1173H26.3597C26.8127 38.1173 27.18 37.7501 27.18 37.297C27.18 36.844 26.8127 36.4767 26.3597 36.4767Z" fill="black"/>
<path d="M40.3057 44.4065C40.3057 41.2402 37.7298 38.6643 34.5635 38.6643C31.3972 38.6643 28.8213 41.2402 28.8213 44.4065C28.8213 46.2312 29.6779 47.8587 31.009 48.9112V55.1797C31.009 55.1885 31.01 55.1969 31.0103 55.2057C31.0109 55.2224 31.0113 55.239 31.0128 55.2558C31.0139 55.2675 31.0158 55.279 31.0173 55.2905C31.0194 55.3055 31.0214 55.3205 31.0242 55.3354C31.0266 55.3479 31.0298 55.3601 31.0327 55.3724C31.036 55.386 31.0392 55.3997 31.0432 55.4132C31.0471 55.4261 31.0516 55.4385 31.056 55.4512C31.0604 55.4637 31.0647 55.4763 31.0697 55.4886C31.0751 55.5017 31.0811 55.5143 31.0871 55.5271C31.0925 55.5385 31.0976 55.55 31.1035 55.5612C31.1106 55.5747 31.1184 55.5875 31.1261 55.6005C31.1322 55.6106 31.138 55.6208 31.1444 55.6306C31.1535 55.6444 31.1634 55.6575 31.1733 55.6707C31.1786 55.6778 31.1832 55.6853 31.1888 55.6923C31.1899 55.6937 31.1912 55.6948 31.1923 55.6962C31.2107 55.719 31.2302 55.7407 31.2508 55.7613C31.2566 55.7671 31.263 55.7721 31.269 55.7777C31.284 55.7918 31.2993 55.8056 31.3154 55.8186C31.325 55.8264 31.3349 55.8334 31.3449 55.8407C31.3584 55.8505 31.3718 55.8602 31.3857 55.8691C31.3962 55.8759 31.4068 55.8823 31.4176 55.8885C31.4322 55.897 31.4471 55.9049 31.4622 55.9126C31.4724 55.9177 31.4827 55.9228 31.4933 55.9275C31.5101 55.9351 31.5272 55.9418 31.5445 55.9482C31.5539 55.9517 31.5632 55.9554 31.5727 55.9585C31.5921 55.965 31.612 55.9702 31.632 55.9751C31.64 55.9771 31.6479 55.9795 31.6559 55.9812C31.6779 55.9861 31.7005 55.9895 31.7232 55.9924C31.7296 55.9932 31.7358 55.9946 31.7422 55.9952C31.7689 55.9981 31.7962 55.9995 31.8237 55.9997C31.8258 55.9997 31.8279 56.0001 31.83 56.0001C31.8309 56.0001 31.8316 55.9998 31.8325 55.9998C31.8725 55.9997 31.9116 55.9958 31.95 55.9902C31.9583 55.989 31.9664 55.9879 31.9747 55.9864C32.0137 55.9795 32.0517 55.9699 32.0885 55.9576C32.0953 55.9553 32.1019 55.9527 32.1086 55.9503C32.1478 55.9361 32.1861 55.9197 32.2224 55.8999C32.2237 55.8992 32.2249 55.8982 32.2262 55.8976C32.2645 55.8765 32.3005 55.852 32.3346 55.8252C32.337 55.8233 32.3397 55.8221 32.3421 55.8202L34.5639 54.0428L36.7857 55.8202C36.788 55.8221 36.7905 55.8232 36.7928 55.8251C36.8271 55.852 36.8633 55.8765 36.9016 55.8977C36.9028 55.8983 36.9039 55.8992 36.9051 55.8999C36.9414 55.9198 36.9798 55.9362 37.0192 55.9504C37.0258 55.9528 37.0323 55.9554 37.039 55.9576C37.0758 55.9699 37.1139 55.9795 37.1529 55.9865C37.1611 55.9879 37.1692 55.989 37.1775 55.9902C37.216 55.9959 37.2551 55.9997 37.2951 55.9998C37.296 55.9998 37.2968 56.0001 37.2976 56.0001C37.2996 56.0001 37.3018 55.9997 37.3038 55.9997C37.3313 55.9995 37.3586 55.9981 37.3855 55.9952C37.3917 55.9946 37.3978 55.9932 37.4039 55.9924C37.4268 55.9895 37.4496 55.986 37.4717 55.9811C37.4795 55.9794 37.4873 55.9771 37.4951 55.9751C37.5153 55.9702 37.5353 55.9648 37.5549 55.9584C37.5642 55.9553 37.5733 55.9516 37.5826 55.9483C37.6001 55.9418 37.6173 55.935 37.6343 55.9274C37.6447 55.9228 37.6549 55.9177 37.6651 55.9126C37.6803 55.9049 37.6953 55.8969 37.71 55.8884C37.7207 55.8822 37.7313 55.8758 37.7418 55.869C37.7557 55.86 37.7693 55.8504 37.7826 55.8406C37.7926 55.8333 37.8025 55.8263 37.8122 55.8185C37.8283 55.8056 37.8435 55.7917 37.8585 55.7777C37.8645 55.7721 37.8709 55.767 37.8767 55.7612C37.8975 55.7406 37.9168 55.7187 37.9353 55.696C37.9364 55.6947 37.9377 55.6936 37.9388 55.6922C37.9444 55.6853 37.9489 55.6778 37.9542 55.6708C37.9642 55.6576 37.9741 55.6444 37.9833 55.6305C37.9898 55.6206 37.9955 55.6105 38.0016 55.6005C38.0093 55.5875 38.0172 55.5746 38.0243 55.5611C38.0302 55.55 38.0354 55.5386 38.0406 55.5272C38.0466 55.5144 38.0527 55.5017 38.058 55.4885C38.063 55.4762 38.0673 55.4636 38.0717 55.4511C38.0762 55.4385 38.0807 55.426 38.0845 55.413C38.0885 55.3995 38.0917 55.3858 38.095 55.3721C38.0979 55.3599 38.1011 55.3477 38.1035 55.3353C38.1064 55.3203 38.1083 55.3053 38.1104 55.2903C38.1119 55.2788 38.1138 55.2674 38.1149 55.2557C38.1164 55.2389 38.1169 55.2222 38.1174 55.2055C38.1177 55.1968 38.1187 55.1884 38.1187 55.1796L38.1185 48.9112C39.449 47.8587 40.3057 46.2312 40.3057 44.4065ZM35.0879 52.3613C35.0879 52.3612 35.0878 52.3612 35.0878 52.361L35.0762 52.3517C35.0702 52.347 35.0639 52.3431 35.0579 52.3385C35.0433 52.3275 35.0288 52.3166 35.0137 52.3067C35.0048 52.3009 34.9957 52.2957 34.9867 52.2903C34.9728 52.282 34.959 52.2735 34.9447 52.2661C34.9334 52.2602 34.9219 52.255 34.9104 52.2497C34.8981 52.2439 34.8857 52.238 34.8731 52.233C34.8598 52.2275 34.8462 52.2229 34.8328 52.2182C34.8215 52.2143 34.8102 52.2102 34.7989 52.2068C34.7845 52.2026 34.7701 52.1991 34.7555 52.1956C34.7444 52.1929 34.7331 52.1901 34.7219 52.1878C34.7076 52.1851 34.6934 52.183 34.6791 52.181C34.6671 52.1793 34.6549 52.1775 34.6428 52.1763C34.6297 52.175 34.6166 52.1744 34.6035 52.1738C34.5898 52.1731 34.5763 52.1725 34.5626 52.1725C34.551 52.1725 34.5395 52.1731 34.5279 52.1737C34.5128 52.1743 34.4977 52.175 34.4827 52.1765C34.4724 52.1775 34.4622 52.179 34.452 52.1805C34.4359 52.1827 34.4199 52.1851 34.4039 52.1881C34.3944 52.1901 34.3849 52.1924 34.3754 52.1947C34.3593 52.1985 34.3433 52.2023 34.3273 52.2072C34.3173 52.2102 34.3074 52.2137 34.2975 52.2172C34.2827 52.2222 34.2679 52.2274 34.2534 52.2333C34.2417 52.238 34.2303 52.2436 34.2188 52.2488C34.2066 52.2545 34.1943 52.2601 34.1822 52.2664C34.1684 52.2737 34.155 52.2819 34.1414 52.29C34.1321 52.2956 34.1227 52.3009 34.1135 52.3069C34.0984 52.3169 34.0839 52.3278 34.0692 52.3388C34.0632 52.3434 34.057 52.3473 34.0511 52.352L34.0397 52.3612C34.0396 52.3613 34.0394 52.3614 34.0391 52.3616L32.6496 53.4733V49.8199C33.2487 50.0323 33.8926 50.1492 34.5635 50.1492C35.2344 50.1492 35.8783 50.0324 36.4774 49.8199L36.4775 53.4729L35.0879 52.3613ZM34.5635 48.5081C32.3018 48.5081 30.4619 46.6682 30.4619 44.4065C30.4619 42.1449 32.3018 40.305 34.5635 40.305C36.8251 40.305 38.665 42.1449 38.665 44.4065C38.665 46.6682 36.8251 48.5081 34.5635 48.5081Z" fill="#2091FF"/>
<path d="M34.5635 41.9455C33.2065 41.9455 32.1025 43.0494 32.1025 44.4064C32.1025 45.7634 33.2065 46.8673 34.5635 46.8673C35.9205 46.8673 37.0244 45.7634 37.0244 44.4064C37.0244 43.0494 35.9205 41.9455 34.5635 41.9455ZM34.5635 45.2267C34.1111 45.2267 33.7432 44.8588 33.7432 44.4064C33.7432 43.954 34.1111 43.5861 34.5635 43.5861C35.0159 43.5861 35.3838 43.954 35.3838 44.4064C35.3838 44.8588 35.0159 45.2267 34.5635 45.2267Z" fill="#2091FF"/>
</g>
<defs>
<clipPath id="clip0_601_1692">
<rect width="56" height="56" fill="white"/>
</clipPath>
</defs>
</svg>
