<svg width="50" height="50" viewBox="0 0 50 50" fill="none" xmlns="http://www.w3.org/2000/svg">
<path d="M48.6399 19.0708C48.0868 19.0708 47.6444 18.6283 47.6444 18.0752V13.6172C47.6444 9.46902 44.2705 6.09512 40.1222 6.09512H33.2196L35.2882 8.16371C35.4762 8.35176 35.5758 8.60618 35.5758 8.87167C35.5758 9.13716 35.4762 9.39158 35.2882 9.57964C35.089 9.76769 34.8457 9.86725 34.5802 9.86725C34.3147 9.86725 34.0603 9.75663 33.8722 9.57964L30.1001 5.80751C29.9121 5.6084 29.8125 5.36503 29.8125 5.09955C29.8125 4.823 29.9121 4.57964 30.1001 4.39158L33.8612 0.619459C34.0492 0.431406 34.3037 0.331848 34.5691 0.331848C34.8346 0.331848 35.089 0.431406 35.2771 0.619459C35.4652 0.807512 35.5647 1.06194 35.5647 1.32742C35.5647 1.59291 35.4652 1.84733 35.2771 2.03539L33.2085 4.10397H40.1112C45.3656 4.10397 49.6355 8.37388 49.6355 13.6172V18.0752C49.6355 18.6283 49.193 19.0708 48.6399 19.0708Z" fill="#2091FF"/>
<path d="M26.7368 49.6681C26.1837 49.6681 25.7412 49.2256 25.7412 48.6725V26.8694C25.7412 26.3163 26.1837 25.8739 26.7368 25.8739H48.5399C49.093 25.8739 49.5355 26.3163 49.5355 26.8694V48.6725C49.5355 49.2256 49.093 49.6681 48.5399 49.6681H26.7368ZM27.7324 47.677H47.5443V27.865H27.7324V47.677Z" fill="black"/>
<path d="M15.4205 49.6682C15.1551 49.6682 14.9006 49.5575 14.7126 49.3806C14.5245 49.1925 14.425 48.9381 14.425 48.6726C14.425 48.4071 14.5245 48.1527 14.7126 47.9646L16.7812 45.896H9.87851C4.63515 45.896 0.365234 41.6261 0.365234 36.3828V31.9248C0.365234 31.3717 0.807712 30.9292 1.36081 30.9292C1.91391 30.9292 2.35638 31.3717 2.35638 31.9248V36.3828C2.35638 40.531 5.73028 43.9049 9.87851 43.9049H16.7812L14.7126 41.8363C14.5245 41.6483 14.425 41.3938 14.425 41.1283C14.425 40.8629 14.5245 40.6084 14.7126 40.4204C14.9006 40.2323 15.1551 40.1328 15.4205 40.1328C15.686 40.1328 15.9405 40.2323 16.1285 40.4204L19.9006 44.1925C20.2878 44.5797 20.2878 45.2102 19.9006 45.6084L16.1285 49.3806C15.9294 49.5686 15.686 49.6682 15.4205 49.6682Z" fill="#2091FF"/>
<path d="M1.46042 2.323C1.20599 2.323 0.951569 2.22344 0.752454 2.02433C0.575463 1.84733 0.464844 1.59291 0.464844 1.32742C0.464844 1.06194 0.575463 0.807512 0.752454 0.619459C0.940507 0.442468 1.19493 0.331848 1.46042 0.331848C1.72591 0.331848 1.98033 0.442468 2.16838 0.619459C2.34537 0.79645 2.45599 1.073 2.45599 1.32742C2.45599 1.59291 2.34537 1.84733 2.16838 2.03539C1.98033 2.22344 1.72591 2.323 1.46042 2.323Z" fill="black"/>
<path d="M12.3676 2.323C12.9175 2.323 13.3632 1.87726 13.3632 1.32742C13.3632 0.777582 12.9175 0.331848 12.3676 0.331848C11.8178 0.331848 11.3721 0.777582 11.3721 1.32742C11.3721 1.87726 11.8178 2.323 12.3676 2.323Z" fill="black"/>
<path d="M6.91354 2.323C7.46339 2.323 7.90912 1.87726 7.90912 1.32742C7.90912 0.777582 7.46339 0.331848 6.91354 0.331848C6.3637 0.331848 5.91797 0.777582 5.91797 1.32742C5.91797 1.87726 6.3637 2.323 6.91354 2.323Z" fill="black"/>
<path d="M17.81 2.323C18.3599 2.323 18.8056 1.87726 18.8056 1.32742C18.8056 0.777582 18.3599 0.331848 17.81 0.331848C17.2602 0.331848 16.8145 0.777582 16.8145 1.32742C16.8145 1.87726 17.2602 2.323 17.81 2.323Z" fill="black"/>
<path d="M23.2632 2.323C22.9977 2.323 22.7432 2.21238 22.5552 2.03539C22.3671 1.84733 22.2676 1.59291 22.2676 1.32742C22.2676 1.06194 22.3782 0.807512 22.5552 0.619459C22.7432 0.442468 23.0087 0.331848 23.2632 0.331848C23.5286 0.331848 23.7831 0.442468 23.9711 0.619459C24.1592 0.807512 24.2587 1.06194 24.2587 1.32742C24.2587 1.59291 24.1481 1.84733 23.9711 2.03539C23.7831 2.22344 23.5286 2.323 23.2632 2.323Z" fill="black"/>
<path d="M23.2632 18.6836C23.813 18.6836 24.2587 18.2379 24.2587 17.688C24.2587 17.1382 23.813 16.6924 23.2632 16.6924C22.7133 16.6924 22.2676 17.1382 22.2676 17.688C22.2676 18.2379 22.7133 18.6836 23.2632 18.6836Z" fill="black"/>
<path d="M23.2632 13.2301C23.813 13.2301 24.2587 12.7844 24.2587 12.2345C24.2587 11.6847 23.813 11.239 23.2632 11.239C22.7133 11.239 22.2676 11.6847 22.2676 12.2345C22.2676 12.7844 22.7133 13.2301 23.2632 13.2301Z" fill="black"/>
<path d="M23.2632 7.77655C23.813 7.77655 24.2587 7.33081 24.2587 6.78097C24.2587 6.23113 23.813 5.7854 23.2632 5.7854C22.7133 5.7854 22.2676 6.23113 22.2676 6.78097C22.2676 7.33081 22.7133 7.77655 23.2632 7.77655Z" fill="black"/>
<path d="M23.2632 24.1261C22.9977 24.1261 22.7432 24.0155 22.5552 23.8385C22.3782 23.6615 22.2676 23.385 22.2676 23.1306C22.2676 22.8651 22.3782 22.6106 22.5552 22.4226C22.7432 22.2345 22.9977 22.135 23.2632 22.135C23.5286 22.135 23.7831 22.2456 23.9711 22.4226C24.1592 22.6106 24.2587 22.8651 24.2587 23.1306C24.2587 23.396 24.1481 23.6505 23.9711 23.8385C23.7831 24.0266 23.5286 24.1261 23.2632 24.1261Z" fill="black"/>
<path d="M17.81 24.1261C18.3599 24.1261 18.8056 23.6804 18.8056 23.1306C18.8056 22.5807 18.3599 22.135 17.81 22.135C17.2602 22.135 16.8145 22.5807 16.8145 23.1306C16.8145 23.6804 17.2602 24.1261 17.81 24.1261Z" fill="black"/>
<path d="M12.3676 24.1261C12.9175 24.1261 13.3632 23.6804 13.3632 23.1306C13.3632 22.5807 12.9175 22.135 12.3676 22.135C11.8178 22.135 11.3721 22.5807 11.3721 23.1306C11.3721 23.6804 11.8178 24.1261 12.3676 24.1261Z" fill="black"/>
<path d="M6.91354 24.1261C7.46339 24.1261 7.90912 23.6804 7.90912 23.1306C7.90912 22.5807 7.46339 22.135 6.91354 22.135C6.3637 22.135 5.91797 22.5807 5.91797 23.1306C5.91797 23.6804 6.3637 24.1261 6.91354 24.1261Z" fill="black"/>
<path d="M1.46042 24.1261C1.20599 24.1261 0.951569 24.0266 0.752454 23.8275C0.575463 23.6505 0.464844 23.385 0.464844 23.1306C0.464844 22.8651 0.575463 22.6106 0.752454 22.4226C0.940507 22.2345 1.19493 22.135 1.46042 22.135C1.72591 22.135 1.98033 22.2456 2.16838 22.4226C2.35644 22.6106 2.45599 22.8651 2.45599 23.1306C2.45599 23.396 2.34537 23.6505 2.16838 23.8385C1.98033 24.0266 1.72591 24.1261 1.46042 24.1261Z" fill="black"/>
<path d="M1.46042 18.6836C2.01026 18.6836 2.45599 18.2379 2.45599 17.688C2.45599 17.1382 2.01026 16.6924 1.46042 16.6924C0.910578 16.6924 0.464844 17.1382 0.464844 17.688C0.464844 18.2379 0.910578 18.6836 1.46042 18.6836Z" fill="black"/>
<path d="M1.46042 13.2301C2.01026 13.2301 2.45599 12.7844 2.45599 12.2345C2.45599 11.6847 2.01026 11.239 1.46042 11.239C0.910578 11.239 0.464844 11.6847 0.464844 12.2345C0.464844 12.7844 0.910578 13.2301 1.46042 13.2301Z" fill="black"/>
<path d="M1.46042 7.77655C2.01026 7.77655 2.45599 7.33081 2.45599 6.78097C2.45599 6.23113 2.01026 5.7854 1.46042 5.7854C0.910578 5.7854 0.464844 6.23113 0.464844 6.78097C0.464844 7.33081 0.910578 7.77655 1.46042 7.77655Z" fill="black"/>
</svg>
