<svg width="50" height="50" viewBox="0 0 50 50" fill="none" xmlns="http://www.w3.org/2000/svg">
<path d="M41.6667 8.82833V4.16667C41.6637 1.86667 39.8 0.00291667 37.5 0H4.16667C1.86667 0.00291667 0.00291667 1.86667 0 4.16667V22.5C0.00645835 24.6281 1.61958 26.4079 3.73667 26.6238L6.86917 34.7552C7.69667 36.9023 10.1079 37.9719 12.2552 37.1454L31.8167 29.61C30.465 33.1406 30.8496 37.1012 32.8546 40.306L33.3333 41.0717V49.1667C33.3333 49.6271 33.7062 50 34.1667 50H49.1667C49.6271 50 50 49.6271 50 49.1667V21.6594C49.9921 18.7775 48.8448 16.0163 46.8073 13.9781L41.6667 8.82833ZM41.6667 13.8121L44.1958 20.3775C44.6915 21.6663 44.0492 23.1123 42.7606 23.6083L41.315 24.1667C41.5458 23.6413 41.6654 23.0733 41.6667 22.5V13.8121ZM1.66667 22.5V4.16667C1.66667 2.78625 2.78625 1.66667 4.16667 1.66667H37.5C38.8804 1.66667 40 2.78625 40 4.16667V9.46333H39.9927L40 9.48229V22.5C39.9935 22.6454 39.9746 22.7896 39.9433 22.9317L32.31 15.2975C30.5942 13.6213 27.8588 13.6083 26.1275 15.2671C24.3958 16.9269 24.2919 19.6602 25.8933 21.4456L29.1475 25H4.16667C2.78625 25 1.66667 23.8804 1.66667 22.5ZM12.3425 26.6667L6.41667 28.9481L5.54 26.6667H12.3425ZM11.6558 35.5898C10.3675 36.0865 8.92063 35.4442 8.42417 34.1558L7.01833 30.5L16.9658 26.6667V26.6617H30.675L31.7581 27.8425L11.6558 35.5898ZM48.3333 48.3333H35V41.6667H48.3333V48.3333ZM48.3333 40H34.6292L34.2677 39.4225C32.2358 36.1754 32.155 32.0742 34.0567 28.75C34.2367 28.4354 34.1925 28.0404 33.9475 27.7733L27.1185 20.3233C26.1002 19.2087 26.1575 17.4856 27.2477 16.4417C28.3383 15.3975 30.0623 15.4146 31.1315 16.4796L44.4108 29.7558L45.5892 28.5775L42.5058 25.4942L43.3608 25.1608C45.5063 24.3331 46.5754 21.924 45.75 19.7773L42.9294 12.4531L45.629 15.1583C47.354 16.8829 48.3267 19.22 48.3333 21.6594V40Z" fill="black"/>
<path d="M9.49968 11.6667C10.6963 11.6667 11.6663 10.6967 11.6663 9.50001V5.50001C11.6663 4.30334 10.6963 3.33334 9.49968 3.33334H5.49968C4.30301 3.33334 3.33301 4.30334 3.33301 5.50001V9.50001C3.33301 10.6967 4.30301 11.6667 5.49968 11.6667H9.49968ZM4.99968 9.50001V8.33335H6.66634V6.66668H4.99968V5.50001C4.99968 5.22397 5.22363 5.00001 5.49968 5.00001H9.49968C9.77572 5.00001 9.99968 5.22397 9.99968 5.50001V6.66668H8.33301V8.33335H9.99968V9.50001C9.99968 9.77606 9.77572 10 9.49968 10H5.49968C5.22363 10 4.99968 9.77606 4.99968 9.50001Z" fill="#2091FF"/>
<path d="M4.16699 14.1667H7.50033V15.8333H4.16699V14.1667Z" fill="black"/>
<path d="M4.16699 19.1667H7.50033V20.8333H4.16699V19.1667Z" fill="black"/>
<path d="M19.167 19.1667H22.5003V20.8333H19.167V19.1667Z" fill="black"/>
<path d="M9.16699 14.1667H12.5003V15.8333H9.16699V14.1667Z" fill="black"/>
<path d="M14.167 14.1667H17.5003V15.8333H14.167V14.1667Z" fill="black"/>
<path d="M19.167 14.1667H22.5003V15.8333H19.167V14.1667Z" fill="black"/>
<path d="M35 4.16666H36.6667V6.66665H35V4.16666Z" fill="#2091FF"/>
<path d="M31.667 4.16666H33.3337V6.66665H31.667V4.16666Z" fill="#2091FF"/>
<path d="M28.333 4.16666H29.9997V6.66665H28.333V4.16666Z" fill="black"/>
<path d="M25 4.16666H26.6666V6.66665H25V4.16666Z" fill="#2091FF"/>
<path d="M36.667 43.3333H38.3337V45H36.667V43.3333Z" fill="black"/>
</svg>
