<svg width="12" height="18" viewBox="0 0 12 18" fill="none" xmlns="http://www.w3.org/2000/svg">
<path d="M4.26636 9.0038L11.0001 2.26976C11.1855 2.08478 11.2875 1.83746 11.2875 1.57376C11.2875 1.3099 11.1855 1.06273 11.0001 0.877463L10.4101 0.287707C10.2249 0.102146 9.97748 0 9.71377 0C9.45006 0 9.20289 0.102146 9.01763 0.287707L1.00002 8.30517C0.814016 8.49102 0.712163 8.73937 0.712895 9.00337C0.712163 9.26854 0.81387 9.51659 1.00002 9.70259L9.01016 17.7123C9.19543 17.8979 9.4426 18 9.70645 18C9.97016 18 10.2173 17.8979 10.4027 17.7123L10.9926 17.1225C11.3765 16.7387 11.3765 16.1138 10.9926 15.7301L4.26636 9.0038Z" fill="white"/>
</svg>
