<svg width="140" height="18" viewBox="0 0 140 18" fill="none" xmlns="http://www.w3.org/2000/svg">
<path fill-rule="evenodd" clip-rule="evenodd" d="M117.946 0.22453L131.925 0.223022C136.307 0.223022 137.961 2.91583 137.961 5.23768C137.961 9.19302 134.039 9.90251 134.039 9.90251L139.121 17.2756H128.898L126.701 12.3774L126.705 17.2756H108.113L105.916 12.3774L105.92 17.2756H97.1602V0.22453L111.139 0.223022C115.521 0.223022 117.179 2.91583 117.179 5.23768C117.179 9.19302 113.253 9.90251 113.253 9.90251L117.946 16.7071V0.22453ZM48.1475 3.47V6.69926H49.4119C50.0793 6.69926 50.5768 6.32831 50.8089 5.89326C50.9955 5.54719 51.1281 4.8705 50.7924 4.24018C50.3902 3.47528 49.6067 3.47754 49.4202 3.46925L48.1475 3.47ZM39.2346 0.223022C39.2346 0.223022 51.978 0.226409 54.1585 0.224147C58.3165 0.22 59.299 3.06097 59.3031 4.72875C59.3156 7.72428 57.0107 8.45941 57.0107 8.45941C57.0107 8.45941 59.4938 9.3114 59.4938 12.5048C59.4938 17.4795 54.4819 17.2745 53.7025 17.2745H39.2346V0.223022ZM96.2896 17.2767V13.3602H92.2353V10.252H96.2482V6.86023H92.2353V3.57631H96.2896V0.224904H82.9617V17.2767H96.2896ZM72.515 17.2767H81.7803V0.224904H72.515V6.68456H69.5095V0.224904H60.0328V17.2767H69.5095V10.1102H72.515V17.2767ZM38.4055 17.2767V13.3602H34.347V10.252H38.364V6.86023H34.347V3.57631H38.4055V0.224904H25.0734V17.2767H38.4055ZM14.7801 0.224904H23.8878V17.2767H14.7801V0.224904ZM13.8722 17.2767V12.5697H9.81786V0.224904H0.419922V17.2767H13.8722ZM105.754 3.46925V7.50902H106.865C108.067 7.50902 108.494 6.99067 108.759 6.44668C108.967 6.01466 109.108 5.23354 108.759 4.4332C108.569 3.99929 108.067 3.46925 106.865 3.46925H105.754ZM126.54 3.46925V7.50902H127.651C128.853 7.50902 129.28 6.99067 129.545 6.44668C129.752 6.01466 129.893 5.23354 129.545 4.4332C129.354 3.99929 128.853 3.46925 127.651 3.46925H126.54ZM48.1434 10.3583V13.8499H49.4202C50.0876 13.8499 50.7716 13.4488 51.0245 12.9783C51.2235 12.6044 51.3561 11.8757 51.0038 11.191C50.5395 10.2885 49.5155 10.3688 49.416 10.3579L48.1434 10.3583Z" fill="black"/>
</svg>
