<svg width="90" height="76" viewBox="0 0 90 76" fill="none" xmlns="http://www.w3.org/2000/svg">
<path d="M28.8052 34.4814C26.5885 33.8433 24.3718 33.5194 22.2156 33.5194C18.8858 33.5194 16.1074 34.2804 13.9531 35.2122C16.03 27.6086 21.0194 14.4889 30.9586 13.0114C31.8791 12.8745 32.6334 12.209 32.8845 11.313L35.0568 3.54336C35.2399 2.88628 35.1314 2.18295 34.7566 1.61274C34.3818 1.04252 33.7795 0.662057 33.1045 0.569538C32.3709 0.469467 31.6232 0.418488 30.8821 0.418488C18.9519 0.418488 7.1369 12.8708 2.15127 30.7004C-0.775346 41.1607 -1.6335 56.887 5.57541 66.7856C9.60941 72.3245 15.4947 75.2822 23.0681 75.5777C23.0992 75.5787 23.1294 75.5796 23.1606 75.5796C32.505 75.5796 40.7911 69.2864 43.3117 60.2772C44.8175 54.8913 44.1369 49.2429 41.3934 44.3687C38.6792 39.5492 34.209 36.0363 28.8052 34.4814Z" fill="#1CA4EE"/>
<path d="M87.2988 44.3696C84.5846 39.5492 80.1144 36.0363 74.7106 34.4814C72.4939 33.8433 70.2772 33.5194 68.1219 33.5194C64.7922 33.5194 62.0128 34.2804 59.8585 35.2122C61.9354 27.6086 66.9248 14.4889 76.8649 13.0114C77.7854 12.8745 78.5388 12.209 78.7908 11.313L80.9631 3.54336C81.1463 2.88628 81.0377 2.18295 80.6629 1.61274C80.2891 1.04252 79.6868 0.662057 79.0108 0.569538C78.2782 0.469467 77.5305 0.418488 76.7885 0.418488C64.8583 0.418488 53.0432 12.8708 48.0567 30.7004C45.131 41.1607 44.2728 56.887 51.4827 66.7875C55.5158 72.3254 61.402 75.2841 68.9744 75.5787C69.0056 75.5796 69.0358 75.5806 69.0679 75.5806C78.4113 75.5806 86.6984 69.2874 89.219 60.2781C90.7229 54.8922 90.0413 49.2429 87.2988 44.3696Z" fill="#1CA4EE"/>
</svg>
