<svg width="10" height="6" viewBox="0 0 10 6" fill="none" xmlns="http://www.w3.org/2000/svg">
<path d="M5.00211 3.96335L1.26098 0.222376C1.15821 0.119369 1.02081 0.0627021 0.874309 0.0627021C0.727723 0.0627021 0.590406 0.119369 0.487479 0.222376L0.159837 0.550181C0.0567477 0.653027 -2.24982e-07 0.790506 -2.18578e-07 0.937011C-2.12174e-07 1.08351 0.0567478 1.22083 0.159837 1.32376L4.61398 5.77799C4.71724 5.88132 4.8552 5.9379 5.00187 5.9375C5.14919 5.9379 5.28699 5.8814 5.39033 5.77799L9.84016 1.3279C9.94325 1.22498 10 1.08766 10 0.941075C10 0.794571 9.94325 0.657254 9.84016 0.554246L9.51252 0.226523C9.29927 0.0132704 8.95211 0.0132705 8.73894 0.226523L5.00211 3.96335Z" fill="white"/>
</svg>
