<svg width="6" height="10" viewBox="0 0 6 10" fill="none" xmlns="http://www.w3.org/2000/svg">
<path d="M3.96335 5.00211L0.222376 1.26098C0.119368 1.15821 0.0627021 1.02081 0.0627021 0.874308C0.0627021 0.727723 0.119369 0.590406 0.222376 0.487479L0.550181 0.159837C0.653027 0.0567475 0.790506 -4.49964e-07 0.937011 -4.37157e-07C1.08351 -4.24349e-07 1.22083 0.0567475 1.32376 0.159837L5.77799 4.61398C5.88132 4.71724 5.9379 4.8552 5.9375 5.00187C5.9379 5.14919 5.8814 5.28699 5.77799 5.39033L1.3279 9.84016C1.22498 9.94325 1.08766 10 0.941075 10C0.794571 10 0.657254 9.94325 0.554246 9.84016L0.226522 9.51252C0.01327 9.29927 0.0132701 8.95211 0.226522 8.73894L3.96335 5.00211Z" fill="black"/>
</svg>
