<svg width="231" height="54" viewBox="0 0 231 54" fill="none" xmlns="http://www.w3.org/2000/svg">
<path d="M137.678 13.4414C137.467 13.2525 137.279 12.922 137.139 12.4263H136.482V19.6263H137.139C137.279 19.1306 137.443 18.8001 137.654 18.6112C137.865 18.4224 138.17 18.3279 138.592 18.3279H147.147V39.4796C147.147 39.9045 147.053 40.235 146.865 40.4474C146.678 40.6599 146.35 40.8487 145.858 40.9668V41.6278H154.506V40.9668C154.014 40.8251 153.686 40.6599 153.498 40.4474C153.311 40.235 153.217 39.9045 153.217 39.4796V18.3279H161.772C162.194 18.3279 162.498 18.4224 162.709 18.6112C162.92 18.8001 163.108 19.1306 163.225 19.6263H163.881V12.4263H163.225C163.084 12.922 162.92 13.2525 162.709 13.4414C162.498 13.6302 162.17 13.7246 161.772 13.7246H138.615C138.217 13.7246 137.912 13.6302 137.678 13.4414Z" fill="#2091FF"/>
<path d="M113.631 40.9429C112.717 40.7068 112.272 40.3055 112.272 39.6917C112.272 39.3849 112.412 38.9599 112.67 38.3934L114.545 34.4511H127.037L128.959 38.3934C129.24 38.9599 129.358 39.3849 129.358 39.6681C129.358 40.3763 128.912 40.7776 128.022 40.9429V41.6039H138.241V40.9429C137.678 40.8249 137.233 40.6124 136.881 40.2819C136.553 39.9514 136.155 39.3376 135.709 38.417L125.162 16.9349C124.904 16.4391 124.787 15.9906 124.787 15.5893C124.787 15.0227 125.186 14.6214 125.983 14.3854V13.7244H116.162V14.3854C116.959 14.6686 117.334 15.0936 117.334 15.7309C117.334 16.1322 117.17 16.6752 116.842 17.3598L106.647 38.7711C106.295 39.5501 105.967 40.0931 105.686 40.3527C105.404 40.636 104.982 40.8013 104.443 40.9193V41.5803H113.608V40.9429H113.631ZM120.85 20.8064L125.303 30.6504H116.326L120.85 20.8064Z" fill="#2091FF"/>
<path d="M197.397 14.3854V13.7244H186.709V14.3854C187.131 14.4562 187.459 14.5978 187.717 14.8339C187.951 15.0463 188.069 15.3296 188.069 15.6365C188.069 15.9198 187.787 16.4627 187.248 17.2654L182.092 24.7723L177.1 17.2654C176.537 16.4391 176.256 15.8962 176.256 15.6601C176.256 14.9755 176.701 14.5506 177.615 14.409V13.748H166.67V14.409C167.279 14.5034 167.795 14.7158 168.24 15.0936C168.686 15.4713 169.295 16.2031 170.045 17.289L178.998 29.9658V39.5029C178.998 39.9278 178.904 40.2347 178.717 40.4708C178.529 40.6832 178.201 40.8721 177.709 40.9901V41.6511H186.358V40.9901C185.889 40.8485 185.537 40.6832 185.35 40.4708C185.162 40.2583 185.069 39.9278 185.069 39.5029V29.9658L194.022 17.289C194.795 16.2031 195.381 15.4713 195.826 15.0936C196.272 14.6922 196.787 14.4562 197.397 14.3854Z" fill="#2091FF"/>
<path d="M96.591 41.1318C97.8098 40.8013 98.8645 40.2819 99.7786 39.5737C101.583 38.1337 102.497 36.1271 102.497 33.5776C102.497 30.3671 100.95 28.1717 97.8332 26.9913C100.341 25.7874 101.583 23.828 101.583 21.1133C101.583 18.6818 100.763 16.8168 99.1223 15.5185C98.302 14.8575 97.341 14.409 96.2395 14.1257C95.1379 13.8424 93.6848 13.7244 91.9035 13.7244H73.1768V14.3854C73.6689 14.527 73.9971 14.6922 74.1846 14.9047C74.3721 15.1172 74.4658 15.4477 74.4658 15.8726V39.4557C74.4658 39.8806 74.3721 40.2111 74.1846 40.4235C73.9971 40.636 73.6689 40.8249 73.1768 40.9429V41.6039H92.091C93.8723 41.6275 95.3723 41.4622 96.591 41.1318ZM80.5128 18.3041H91.1066C92.7238 18.3041 93.8488 18.5637 94.5285 19.0595C95.2082 19.5552 95.5363 20.3815 95.5363 21.5618C95.5363 22.6949 95.1848 23.5448 94.4582 24.0877C93.8254 24.5598 92.7004 24.7959 91.0832 24.7959H80.4893V18.3041H80.5128ZM80.5128 37.0242V29.3992H90.7785C92.7004 29.3992 94.0832 29.6589 94.9035 30.2018C95.8645 30.8392 96.3332 31.8307 96.3332 33.2235C96.3332 34.6163 95.8645 35.6078 94.9035 36.2452C94.0598 36.7645 92.6769 37.0478 90.7785 37.0478H80.5128V37.0242Z" fill="#2091FF"/>
<path d="M229.038 40.3057C228.593 39.9044 227.913 39.0545 226.952 37.709L221.562 30.0368C226.577 29.2578 229.085 26.5902 229.085 22.0341C229.085 20.6885 228.827 19.4374 228.335 18.257C227.796 17.0531 226.999 16.0852 225.945 15.377C225.031 14.7632 223.952 14.3383 222.71 14.0786C221.468 13.8426 219.804 13.7009 217.694 13.7009H200.351V14.3619C200.843 14.5036 201.171 14.6688 201.358 14.8813C201.546 15.0937 201.64 15.4242 201.64 15.8491V39.4558C201.64 39.8572 201.546 40.1877 201.358 40.4001C201.171 40.6126 200.843 40.8014 200.351 40.9195V41.5805H208.999V40.9195C208.53 40.8014 208.202 40.6362 207.991 40.4001C207.804 40.1877 207.71 39.8572 207.71 39.4558V30.2256H215.046L220.695 38.4172C221.327 39.3614 221.655 39.9516 221.655 40.1877C221.655 40.5654 221.304 40.8014 220.624 40.9195V41.5805H230.632V40.9195C230.023 40.9195 229.484 40.6834 229.038 40.3057ZM219.991 25.5043C219.429 25.5987 218.445 25.6223 217.062 25.6223H207.733V18.3042H217.062C218.468 18.3042 219.452 18.3278 219.991 18.4223C220.53 18.4931 221.046 18.6819 221.538 18.9416C222.57 19.5082 223.085 20.4997 223.085 21.9633C223.085 23.4269 222.57 24.442 221.538 24.9849C221.093 25.2682 220.554 25.4335 219.991 25.5043Z" fill="#2091FF"/>
<path d="M6.90687 54H18.3679C12.7897 54 10.7038 49.3022 11.6882 44.6045C11.946 43.4006 12.2507 42.952 12.8132 41.9133L33.4852 4.73278C33.9774 3.93015 34.5165 3.22195 35.0321 2.65539C34.9149 2.49014 34.7978 2.39571 34.7274 2.32489C30.954 -0.696766 25.9383 -1.59382 22.0242 4.73278L1.35213 41.9369C0.76619 42.9756 0.461502 43.4242 0.227125 44.6281C-0.733822 49.3258 1.3287 54 6.90687 54Z" fill="#2091FF"/>
<path d="M44.7581 54.0001H56.2191C50.8987 53.8112 48.9065 49.2315 49.8675 44.6282C50.1253 43.4243 50.43 42.9757 50.9925 41.937L54.1097 36.3186L48.3909 26.0261L39.5549 41.937C38.9689 42.9757 38.6643 43.4243 38.4299 44.6282C37.4689 49.2315 39.4377 53.8112 44.7581 54.0001Z" fill="#2091FF"/>
<path fill-rule="evenodd" clip-rule="evenodd" d="M39.0397 9.17065L44.7586 19.4632L32.2662 41.9368C31.6803 42.9755 31.3756 43.424 31.1412 44.6279C30.1803 49.2312 32.1725 53.8345 37.4929 53.9998H29.2897H26.0318C20.7115 53.8109 18.7192 49.2312 19.6802 44.6279C19.938 43.424 20.2427 42.9755 20.8052 41.9368L39.0397 9.17065Z" fill="#FFCB00"/>
</svg>
