<svg width="12" height="12" viewBox="0 0 12 12" fill="none" xmlns="http://www.w3.org/2000/svg">
<g clip-path="url(#clip0_601_132)">
<path d="M7.9541 6.0615L11.9996 8.619V3.396L7.9541 6.0615Z" fill="#2091FF"/>
<path d="M0 3.396V8.619L4.0455 6.0615L0 3.396Z" fill="#2091FF"/>
<path d="M11.25 1.875H0.749961C0.375711 1.875 0.0787109 2.154 0.0224609 2.51325L5.99996 6.4515L11.9775 2.51325C11.9212 2.154 11.6242 1.875 11.25 1.875Z" fill="#2091FF"/>
<path d="M7.26791 6.51442L6.20666 7.21342C6.14366 7.25467 6.07241 7.27492 6.00041 7.27492C5.92841 7.27492 5.85716 7.25467 5.79416 7.21342L4.73291 6.51367L0.0244141 9.49192C0.0821641 9.84817 0.377664 10.1249 0.750414 10.1249H11.2504C11.6232 10.1249 11.9187 9.84817 11.9764 9.49192L7.26791 6.51442Z" fill="#2091FF"/>
</g>
<defs>
<clipPath id="clip0_601_132">
<rect width="12" height="12" fill="white"/>
</clipPath>
</defs>
</svg>
