<svg width="12" height="18" viewBox="0 0 12 18" fill="none" xmlns="http://www.w3.org/2000/svg">
<path d="M7.73364 8.99619L0.999888 15.7302C0.814472 15.9152 0.712473 16.1625 0.712473 16.4262C0.712473 16.6901 0.814472 16.9373 0.999888 17.1225L1.58994 17.7123C1.77506 17.8979 2.02252 18 2.28623 18C2.54994 18 2.79711 17.8979 2.98237 17.7123L11 9.69483C11.186 9.50898 11.2878 9.26063 11.2871 8.99663C11.2878 8.73146 11.1861 8.48341 11 8.29741L2.98984 0.287708C2.80457 0.102147 2.5574 -7.63176e-07 2.29355 -7.86242e-07C2.02984 -8.09296e-07 1.78267 0.102147 1.59725 0.287707L1.00735 0.877463C0.623498 1.26132 0.623498 1.8862 1.00735 2.2699L7.73364 8.99619Z" fill="black"/>
</svg>
