<svg width="96" height="96" viewBox="0 0 96 96" fill="none" xmlns="http://www.w3.org/2000/svg">
<circle opacity="0.2" cx="48" cy="48" r="48" fill="white"/>
<path d="M68.5845 66.5814L58.9159 56.9128C60.7887 54.5994 61.9163 51.6598 61.9163 48.4582C61.9163 41.0378 55.8786 35 48.4581 35C41.0377 35 35 41.0377 35 48.4581C35 55.8786 41.0378 61.9164 48.4582 61.9164C51.6598 61.9164 54.5994 60.7887 56.9128 58.9159L66.5814 68.5845C66.8577 68.8608 67.2203 68.9996 67.583 68.9996C67.9457 68.9996 68.3083 68.8608 68.5846 68.5845C69.1385 68.0306 69.1385 67.1353 68.5845 66.5814ZM48.4582 59.083C42.5989 59.083 37.8333 54.3174 37.8333 48.4581C37.8333 42.5989 42.5989 37.8333 48.4582 37.8333C54.3175 37.8333 59.0831 42.5989 59.0831 48.4581C59.0831 54.3174 54.3174 59.083 48.4582 59.083Z" fill="white"/>
</svg>
