<svg width="146" height="96" viewBox="0 0 146 96" fill="none" xmlns="http://www.w3.org/2000/svg">
<path fill-rule="evenodd" clip-rule="evenodd" d="M99.0497 49.92C94.1179 49.7454 92.2711 45.5127 93.1619 41.2582C93.4009 40.1454 93.6833 39.7309 94.2048 38.7709L97.0943 33.5782L91.7932 24.0654L83.5807 38.7927C83.0375 39.7527 82.7551 40.1673 82.5378 41.28C81.647 45.5345 83.4938 49.7891 88.4256 49.9418H99.0497V49.92ZM6.82202 77.4109H16.3381C18.0979 77.4109 19.3798 77.1709 20.1619 76.6691C21.0527 76.1018 21.4872 75.1636 21.4872 73.8764C21.4872 72.6109 21.0527 71.6727 20.1619 71.0836C19.4015 70.6036 18.1196 70.3418 16.3381 70.3418H6.82202V77.4109ZM6.82202 66.1309H16.6423C18.1414 66.1309 19.1625 65.9127 19.7708 65.4764C20.4226 64.9745 20.7702 64.1891 20.7702 63.1418C20.7702 62.0509 20.4661 61.2873 19.836 60.8291C19.206 60.3709 18.1414 60.1309 16.664 60.1309H6.82202V66.1309ZM22.856 68.1382C25.7455 69.2291 27.1795 71.2582 27.1795 74.2254C27.1795 76.5818 26.3321 78.4364 24.6592 79.7673C23.8119 80.4218 22.8342 80.9236 21.7045 81.2073C20.5747 81.5127 19.206 81.6436 17.533 81.6436H0V81.0327C0.45625 80.9018 0.760417 80.7491 0.934226 80.5527C1.10804 80.3564 1.19494 80.0509 1.19494 79.6582V57.8618C1.19494 57.4691 1.10804 57.1636 0.934226 56.9673C0.760417 56.7709 0.45625 56.5963 0 56.4873V55.8764H17.381C19.0539 55.8764 20.3792 56.0073 21.4003 56.2473C22.4214 56.5091 23.2905 56.9236 24.0726 57.5345C25.5935 58.7345 26.3539 60.4582 26.3539 62.7054C26.3321 65.2363 25.1807 67.0473 22.856 68.1382ZM48.319 71.5418L44.1911 62.4436L39.9979 71.5418H48.319ZM49.9268 75.0545H38.3467L36.6086 78.6982C36.3696 79.2 36.2393 79.5927 36.2393 79.8982C36.2393 80.4654 36.6521 80.8363 37.4994 81.0545V81.6654H29.0045V81.0545C29.5042 80.9454 29.8952 80.7709 30.156 80.5309C30.4167 80.2691 30.7208 79.7891 31.0467 79.0691L40.4976 59.28C40.8018 58.6473 40.9539 58.1454 40.9539 57.7745C40.9539 57.1854 40.5845 56.7927 39.8676 56.5309V55.92H48.9708V56.5309C48.2321 56.7491 47.8628 57.12 47.8628 57.6436C47.8628 58.0145 47.9714 58.4291 48.2104 58.8873L57.9872 78.7418C58.4 79.5927 58.7693 80.16 59.0735 80.4654C59.3777 80.7709 59.8122 80.9673 60.3336 81.0764V81.6873H50.8393V81.0764C51.6649 80.9454 52.0777 80.5527 52.0777 79.8982C52.0777 79.6364 51.9473 79.2436 51.7083 78.72L49.9268 75.0545ZM74.2167 60.1309V79.68C74.2167 80.0727 74.3036 80.3782 74.4774 80.5745C74.6512 80.7709 74.9554 80.9454 75.4116 81.0545V81.6654H67.3946V81.0545C67.8509 80.9236 68.1551 80.7709 68.3289 80.5745C68.5027 80.3782 68.5896 80.0727 68.5896 79.68V60.1309H60.6595C60.2902 60.1309 60.0077 60.2182 59.7905 60.3927C59.5949 60.5673 59.4211 60.8727 59.3125 61.3309H58.7042V54.6764H59.3125C59.4429 55.1345 59.6167 55.44 59.8122 55.6145C60.0077 55.7891 60.2902 55.8764 60.6595 55.8764H82.125C82.5161 55.8764 82.7985 55.7891 82.994 55.6145C83.1896 55.44 83.3634 55.1345 83.472 54.6764H84.0804V61.3309H83.472C83.3417 60.8727 83.1896 60.5673 82.994 60.3927C82.7985 60.2182 82.4943 60.1309 82.125 60.1309H74.2167ZM103.721 70.8654V79.68C103.721 80.0727 103.808 80.3563 103.982 80.5745C104.155 80.7709 104.46 80.9454 104.916 81.0545V81.6654H96.8988V81.0545C97.3333 80.9236 97.6375 80.7709 97.833 80.5745C98.0068 80.3782 98.0938 80.0727 98.0938 79.68V70.8654L89.7943 59.1491C89.0774 58.1454 88.5342 57.4691 88.1214 57.12C87.7086 56.7709 87.2307 56.5745 86.6658 56.4873V55.8764H96.8119V56.4873C95.9646 56.6182 95.5518 57.0109 95.5518 57.6436C95.5518 57.8618 95.8125 58.3636 96.3339 59.1273L100.962 66.0654L105.741 59.1273C106.263 58.3854 106.502 57.8836 106.502 57.6218C106.502 57.3382 106.393 57.0764 106.176 56.88C105.937 56.6836 105.633 56.5309 105.242 56.4654V55.8545H115.149V56.4654C114.584 56.5527 114.106 56.7491 113.693 57.0982C113.28 57.4473 112.715 58.1236 112.02 59.1273L103.721 70.8654ZM124.73 66.8945H133.399C134.681 66.8945 135.571 66.8509 136.115 66.7854C136.636 66.72 137.136 66.5454 137.57 66.3054C138.526 65.7818 139.004 64.8654 139.004 63.5127C139.004 62.16 138.526 61.2218 137.57 60.72C137.114 60.4582 136.636 60.3054 136.136 60.24C135.637 60.1745 134.724 60.1309 133.421 60.1309H124.774V66.8945H124.73ZM124.73 71.1491V79.68C124.73 80.0509 124.817 80.3564 124.991 80.5527C125.165 80.7709 125.469 80.9236 125.925 81.0327V81.6436H117.908V81.0327C118.364 80.9018 118.668 80.7491 118.842 80.5527C119.016 80.3564 119.103 80.0727 119.103 79.68V57.8618C119.103 57.4691 119.016 57.1636 118.842 56.9673C118.668 56.7709 118.364 56.5963 117.908 56.4873V55.8764H133.985C135.941 55.8764 137.505 55.9854 138.635 56.2254C139.786 56.4436 140.786 56.8582 141.633 57.4254C142.611 58.08 143.349 58.9745 143.849 60.0873C144.305 61.1782 144.544 62.3345 144.544 63.5782C144.544 67.7891 142.22 70.2545 137.57 70.9745L142.567 78.0654C143.436 79.3091 144.088 80.1163 144.501 80.4654C144.914 80.8145 145.413 81.0109 146 81.0545V81.6654H136.723V81.0545C137.353 80.9454 137.679 80.7273 137.679 80.3782C137.679 80.16 137.375 79.6145 136.788 78.7418L131.552 71.1709H124.73V71.1491ZM7.7128 87.6218V94.8218C7.7128 94.9745 7.75625 95.0836 7.7997 95.1491C7.86488 95.2145 7.97351 95.28 8.14732 95.3236V95.5418H5.21429V95.3236C5.3881 95.28 5.49673 95.2145 5.5619 95.1491C5.62708 95.0836 5.64881 94.9745 5.64881 94.8218V87.6218H2.71577C2.58542 87.6218 2.47679 87.6436 2.38988 87.7091C2.3247 87.7745 2.25952 87.8836 2.21607 88.0582H1.99881V85.6145H2.21607C2.25952 85.7891 2.3247 85.8982 2.38988 85.9636C2.45506 86.0291 2.56369 86.0509 2.69405 86.0509H10.6458C10.7979 86.0509 10.9065 86.0291 10.9717 85.9636C11.0369 85.8982 11.1021 85.7891 11.1455 85.6145H11.3628V88.0582H11.1455C11.1021 87.8836 11.0369 87.7745 10.9717 87.7091C10.9065 87.6436 10.7979 87.6218 10.6458 87.6218H7.7128ZM14.3176 90.1091H17.5113C17.9893 90.1091 18.3152 90.0873 18.5107 90.0654C18.7062 90.0436 18.8801 89.9782 19.0539 89.8909C19.4015 89.6945 19.5753 89.3454 19.5753 88.8654C19.5753 88.3636 19.4015 88.0364 19.0539 87.84C18.8801 87.7527 18.7063 87.6873 18.5324 87.6654C18.3369 87.6436 18.011 87.6218 17.533 87.6218H14.3176V90.1091ZM29.0479 91.8327L27.5271 88.4727L25.9845 91.8327H29.0479ZM29.6563 93.12H25.3979L24.7461 94.4727C24.6592 94.6691 24.6158 94.8 24.6158 94.9091C24.6158 95.1054 24.7679 95.2582 25.072 95.3454V95.5636H22.139H21.9435H18.728V95.3454C18.967 95.3018 19.0756 95.2145 19.0756 95.1054C19.0756 95.0182 18.967 94.8218 18.7497 94.4945L16.8161 91.7018H14.3176V94.8436C14.3176 94.9745 14.361 95.0836 14.4262 95.1709C14.4914 95.2582 14.6 95.3018 14.7738 95.3454V95.5636H11.7973V95.3454C11.9711 95.3018 12.0798 95.2364 12.1449 95.1709C12.2101 95.1054 12.2318 94.9964 12.2318 94.8436V86.7927C12.2318 86.64 12.1884 86.5309 12.1449 86.4654C12.0798 86.4 11.9711 86.3345 11.7973 86.2909V86.0727H17.7286C18.4455 86.0727 19.0321 86.1164 19.4449 86.2036C19.8577 86.2909 20.2271 86.4436 20.553 86.64C20.9223 86.88 21.183 87.2073 21.3786 87.6218C21.5524 88.0145 21.6393 88.4509 21.6393 88.9091C21.6393 90.4582 20.7702 91.3745 19.0756 91.6363L20.9223 94.2545C21.2482 94.7127 21.4872 95.0182 21.6393 95.1491C21.7479 95.2582 21.9 95.3236 22.0521 95.3454C22.2042 95.3018 22.3128 95.2582 22.3997 95.1709C22.4866 95.0836 22.5952 94.8873 22.7256 94.6254L26.2018 87.3164C26.3104 87.0764 26.3756 86.9018 26.3756 86.7491C26.3756 86.5309 26.2452 86.3782 25.9628 86.2909V86.0727H29.3086V86.2909C29.0262 86.3782 28.8958 86.5091 28.8958 86.7054C28.8958 86.8363 28.9393 86.9891 29.0262 87.1636L32.6327 94.4945C32.7848 94.8 32.9152 95.0182 33.0455 95.1273C33.1542 95.2363 33.3063 95.3236 33.5018 95.3454V95.5636H29.9821V95.3454C30.2863 95.3018 30.4384 95.1491 30.4384 94.9091C30.4384 94.8 30.3949 94.6691 30.308 94.4727L29.6563 93.12ZM34.2188 94.8218V86.7709C34.2188 86.64 34.1753 86.5309 34.1318 86.4436C34.0667 86.3782 33.958 86.3127 33.7842 86.2691V86.0509H36.7173V86.2691C36.5435 86.3127 36.4348 86.3782 36.3696 86.4436C36.3045 86.5091 36.2827 86.6182 36.2827 86.7709V94.8218C36.2827 94.9745 36.3262 95.0836 36.3914 95.1491C36.4565 95.2363 36.5652 95.28 36.739 95.3236V95.5418H33.7842V95.3236C33.958 95.28 34.0667 95.2145 34.1318 95.1491C34.1753 95.0836 34.2188 94.9745 34.2188 94.8218ZM40.2152 89.0618V94.8436C40.2152 94.9964 40.2586 95.1054 40.3021 95.1709C40.3673 95.2364 40.4759 95.3018 40.6497 95.3454V95.5636H37.8905V95.3454C38.0643 95.3018 38.1729 95.2364 38.2381 95.1709C38.3033 95.1054 38.325 94.9964 38.325 94.8436V86.7927C38.325 86.6618 38.2815 86.5527 38.2381 86.4654C38.1729 86.4 38.0643 86.3345 37.8905 86.2909V86.0727H41.106V86.2909C40.9104 86.3345 40.8018 86.4436 40.8018 86.6182C40.8018 86.7273 40.867 86.8582 40.9973 86.9891L46.2333 92.4436V86.8145C46.2333 86.6836 46.1899 86.5745 46.1464 86.4873C46.0812 86.4218 45.9726 86.3564 45.7988 86.3127V86.0945H48.558V86.3127C48.3842 86.3564 48.2756 86.4218 48.2104 86.4873C48.1452 86.5527 48.1235 86.6618 48.1235 86.8145V94.8654C48.1235 95.0182 48.167 95.1273 48.2104 95.1927C48.2756 95.2582 48.3842 95.3236 48.558 95.3673V95.5854H45.5815V95.3673C45.7771 95.3236 45.864 95.2145 45.864 95.0618C45.864 94.9745 45.7554 94.8 45.5164 94.5818L40.2152 89.0618ZM50.1875 94.8218V86.7709C50.1875 86.64 50.1441 86.5309 50.1006 86.4436C50.0354 86.3782 49.9268 86.3127 49.753 86.2691V86.0509H52.7077V86.2691C52.5339 86.3127 52.4253 86.3782 52.3601 86.4436C52.2949 86.5091 52.2732 86.6182 52.2732 86.7709V94.8218C52.2732 94.9745 52.3167 95.0836 52.3818 95.1491C52.447 95.2363 52.5557 95.28 52.7295 95.3236V95.5418H49.7747V95.3236C49.9485 95.28 50.0571 95.2145 50.1223 95.1491C50.144 95.0836 50.1875 94.9745 50.1875 94.8218ZM56.1839 89.0618V94.8436C56.1839 94.9964 56.2274 95.1054 56.2708 95.1709C56.336 95.2364 56.4446 95.3018 56.6185 95.3454V95.5636H53.8592V95.3454C54.033 95.3018 54.1417 95.2364 54.2068 95.1709C54.272 95.1054 54.2938 94.9964 54.2938 94.8436V86.7927C54.2938 86.6618 54.2503 86.5527 54.2068 86.4654C54.1417 86.4 54.033 86.3345 53.8592 86.2909V86.0727H57.0747V86.2909C56.8792 86.3345 56.7705 86.4436 56.7705 86.6182C56.7705 86.7273 56.8357 86.8582 56.9661 86.9891L62.2021 92.4436V86.8145C62.2021 86.6836 62.1586 86.5745 62.1152 86.4873C62.05 86.4218 61.9414 86.3564 61.7676 86.3127V86.0945H64.5268V86.3127C64.353 86.3564 64.2443 86.4218 64.1792 86.4873C64.114 86.5527 64.0923 86.6618 64.0923 86.8145V94.8654C64.0923 95.0182 64.1357 95.1273 64.1792 95.1927C64.2443 95.2582 64.353 95.3236 64.5268 95.3673V95.5854H61.5503V95.3673C61.7458 95.3236 61.8327 95.2145 61.8327 95.0618C61.8327 94.9745 61.7241 94.8 61.4851 94.5818L56.1839 89.0618ZM74.0646 92.1382H71.7182C71.5661 92.1382 71.4574 92.1818 71.3923 92.2254C71.3271 92.2909 71.2619 92.4 71.2185 92.5745H71.0012V90.3709H71.2185C71.2619 90.5454 71.3271 90.6545 71.3923 90.72C71.4574 90.7854 71.5661 90.8073 71.7182 90.8073H76.1938V91.0254C76.0199 91.0691 75.9113 91.1345 75.8461 91.2C75.781 91.2654 75.7592 91.3745 75.7592 91.5273V93.4691C75.7592 93.6218 75.781 93.7309 75.8461 93.7963C75.9113 93.8618 76.0199 93.9273 76.1938 93.9709V94.1454C74.3905 95.1709 72.6524 95.6945 70.9795 95.6945C69.4586 95.6945 68.1985 95.3236 67.2426 94.6036C66.0259 93.6873 65.4176 92.4 65.4176 90.7636C65.4176 89.2363 65.9607 88.0363 67.047 87.12C68.0682 86.2691 69.4369 85.8327 71.1315 85.8327C71.6747 85.8327 72.1744 85.8764 72.6524 85.9854C73.1304 86.0945 73.6735 86.2473 74.2818 86.4873C74.6077 86.6182 74.825 86.6836 74.9554 86.6836C75.0423 86.6836 75.1726 86.64 75.303 86.5309L75.4985 86.64L74.3905 88.9091L74.1949 88.8C74.1949 88.6473 74.1732 88.5382 74.1298 88.4727C74.0863 88.4073 73.9994 88.32 73.869 88.2327C73.5866 88.0145 73.1738 87.84 72.6307 87.6873C72.0875 87.5345 71.5661 87.4691 71.0881 87.4691C70.0887 87.4691 69.2848 87.7527 68.633 88.2982C67.8943 88.9309 67.525 89.76 67.525 90.8073C67.525 91.8109 67.8943 92.6182 68.6113 93.2509C69.2631 93.8182 70.1321 94.1018 71.2185 94.1018C71.7399 94.1018 72.2613 94.0363 72.761 93.9273C73.2607 93.7963 73.717 93.6436 74.0863 93.4254V92.1382H74.0646ZM90.0333 92.3127L91.3586 94.2982L91.1848 94.4291C91.0545 94.2982 90.9458 94.2545 90.8589 94.2545C90.772 94.2545 90.533 94.3636 90.1637 94.5818C89.3598 95.04 88.708 95.3454 88.1649 95.52C87.6217 95.6727 86.9699 95.76 86.2313 95.76C84.7321 95.76 83.5155 95.4109 82.5595 94.6909C81.9946 94.2763 81.5601 93.7745 81.2342 93.1418C80.8649 92.4436 80.6693 91.6582 80.6693 90.8073C80.6693 89.6509 80.9952 88.6473 81.6688 87.7963C82.6682 86.5091 84.2107 85.8764 86.2313 85.8764C86.9917 85.8764 87.6217 85.9636 88.1649 86.1164C88.708 86.2691 89.3816 86.5963 90.1854 87.0545C90.5765 87.2727 90.7937 87.3818 90.8807 87.3818C90.9676 87.3818 91.0762 87.3164 91.2065 87.2073L91.3804 87.3382L90.0551 89.3236L89.8595 89.1927C89.8595 89.1273 89.8813 89.0618 89.8813 88.9963C89.8813 88.8654 89.8161 88.7345 89.7074 88.6254C89.5988 88.5164 89.3815 88.3636 89.0774 88.1891C88.2518 87.7309 87.3827 87.4909 86.4702 87.4909C85.3839 87.4909 84.5149 87.7745 83.8848 88.2982C83.1244 88.9309 82.7551 89.76 82.7551 90.7854C82.7551 91.8109 83.1244 92.64 83.8848 93.2727C84.5366 93.8182 85.3839 94.08 86.4702 94.08C87.3827 94.08 88.2518 93.84 89.0774 93.3818C89.3815 93.2073 89.5771 93.0763 89.7074 92.9454C89.8161 92.8363 89.8813 92.7054 89.8813 92.5745C89.8813 92.5309 89.8813 92.4654 89.8595 92.4L90.0333 92.3127ZM94.7479 91.3963V94.0145H100.831C100.962 94.0145 101.07 93.9709 101.157 93.9273C101.222 93.8618 101.288 93.7527 101.331 93.5782H101.548V96H101.331C101.288 95.8254 101.222 95.7163 101.157 95.6509C101.092 95.5854 100.983 95.5636 100.831 95.5636H92.2494V95.3454C92.4232 95.3018 92.5319 95.2364 92.597 95.1709C92.6622 95.1054 92.6839 94.9964 92.6839 94.8436V86.8145C92.6839 86.6618 92.6405 86.5527 92.597 86.4873C92.5319 86.4218 92.4232 86.3564 92.2494 86.3127V86.0945H100.657C100.788 86.0945 100.896 86.0509 100.983 86.0073C101.049 85.9418 101.114 85.8327 101.157 85.6582H101.374V88.1018H101.157C101.114 87.9273 101.049 87.8182 100.983 87.7527C100.918 87.6873 100.81 87.6654 100.657 87.6654H94.7479V89.9127H98.5717C98.7021 89.9127 98.8107 89.8691 98.8976 89.8254C98.9628 89.76 99.028 89.6509 99.0714 89.4764H99.2887V91.8764H99.0714C99.028 91.7236 98.9628 91.5927 98.8976 91.5273C98.8324 91.4618 98.7238 91.4182 98.5717 91.4182H94.7479V91.3963ZM104.829 89.0618V94.8436C104.829 94.9964 104.872 95.1054 104.916 95.1709C104.981 95.2364 105.09 95.3018 105.263 95.3454V95.5636H102.504V95.3454C102.678 95.3018 102.787 95.2364 102.852 95.1709C102.917 95.1054 102.939 94.9964 102.939 94.8436V86.7927C102.939 86.6618 102.895 86.5527 102.852 86.4654C102.787 86.4 102.678 86.3345 102.504 86.2909V86.0727H105.72V86.2909C105.524 86.3345 105.415 86.4436 105.415 86.6182C105.415 86.7273 105.481 86.8582 105.611 86.9891L110.847 92.4436V86.8145C110.847 86.6836 110.804 86.5745 110.76 86.4873C110.695 86.4218 110.586 86.3564 110.413 86.3127V86.0945H113.172V86.3127C112.998 86.3564 112.889 86.4218 112.824 86.4873C112.759 86.5527 112.737 86.6618 112.737 86.8145V94.8654C112.737 95.0182 112.781 95.1273 112.824 95.1927C112.889 95.2582 112.998 95.3236 113.172 95.3673V95.5854H110.195V95.3673C110.391 95.3236 110.478 95.2145 110.478 95.0618C110.478 94.9745 110.369 94.8 110.13 94.5818L104.829 89.0618ZM119.299 87.6218V94.8218C119.299 94.9745 119.342 95.0836 119.385 95.1491C119.451 95.2145 119.559 95.28 119.733 95.3236V95.5418H116.778V95.3236C116.952 95.28 117.061 95.2145 117.126 95.1491C117.191 95.0836 117.213 94.9745 117.213 94.8218V87.6218H114.28C114.149 87.6218 114.041 87.6436 113.954 87.7091C113.889 87.7745 113.824 87.8836 113.78 88.0582H113.563V85.6145H113.78C113.824 85.7891 113.889 85.8982 113.954 85.9636C114.019 86.0291 114.128 86.0509 114.258 86.0509H122.166C122.318 86.0509 122.427 86.0291 122.492 85.9636C122.557 85.8982 122.623 85.7891 122.666 85.6145H122.883V88.0582H122.666C122.623 87.8836 122.557 87.7745 122.492 87.7091C122.427 87.6436 122.318 87.6218 122.166 87.6218H119.299ZM125.903 91.3963V94.0145H131.987C132.117 94.0145 132.226 93.9709 132.313 93.9273C132.378 93.8618 132.443 93.7527 132.486 93.5782H132.704V96H132.486C132.443 95.8254 132.378 95.7163 132.313 95.6509C132.247 95.5854 132.139 95.5636 131.987 95.5636H123.405V95.3454C123.579 95.3018 123.687 95.2364 123.752 95.1709C123.818 95.1054 123.839 94.9964 123.839 94.8436V86.8145C123.839 86.6618 123.796 86.5527 123.752 86.4873C123.687 86.4218 123.579 86.3564 123.405 86.3127V86.0945H131.813C131.943 86.0945 132.052 86.0509 132.139 86.0073C132.204 85.9418 132.269 85.8327 132.313 85.6582H132.53V88.1018H132.313C132.269 87.9273 132.204 87.8182 132.139 87.7527C132.074 87.6873 131.965 87.6654 131.813 87.6654H125.903V89.9127H129.727C129.857 89.9127 129.966 89.8691 130.053 89.8254C130.118 89.76 130.183 89.6509 130.227 89.4764H130.444V91.8764H130.227C130.183 91.7236 130.118 91.5927 130.053 91.5273C129.988 91.4618 129.879 91.4182 129.727 91.4182H125.903V91.3963ZM136.158 90.1091H139.352C139.83 90.1091 140.156 90.0873 140.351 90.0654C140.547 90.0436 140.721 89.9782 140.894 89.8909C141.242 89.6945 141.416 89.3454 141.416 88.8654C141.416 88.3636 141.242 88.0364 140.894 87.84C140.721 87.7527 140.547 87.6873 140.373 87.6654C140.177 87.6436 139.851 87.6218 139.374 87.6218H136.18V90.1091H136.158ZM136.158 91.68V94.8218C136.158 94.9527 136.201 95.0618 136.267 95.1491C136.332 95.2363 136.44 95.28 136.614 95.3236V95.5418H133.66V95.3236C133.833 95.28 133.942 95.2145 134.007 95.1491C134.072 95.0836 134.094 94.9745 134.094 94.8218V86.7709C134.094 86.6182 134.051 86.5091 134.007 86.4436C133.942 86.3782 133.833 86.3127 133.66 86.2691V86.0509H139.591C140.308 86.0509 140.894 86.0945 141.307 86.1818C141.72 86.2691 142.089 86.4218 142.415 86.6182C142.785 86.8582 143.045 87.1854 143.241 87.6C143.415 87.9927 143.501 88.4291 143.501 88.8873C143.501 90.4363 142.632 91.3527 140.938 91.6145L142.785 94.2327C143.11 94.6909 143.349 94.9963 143.501 95.1273C143.654 95.2582 143.827 95.3236 144.045 95.3454V95.5636H140.568V95.3454C140.807 95.3018 140.916 95.2145 140.916 95.1054C140.916 95.0182 140.807 94.8218 140.59 94.4945L138.657 91.7018H136.158V91.68ZM53.3595 49.92H63.9836C58.8128 49.92 56.8792 45.5782 57.7917 41.2364C58.0307 40.1236 58.3131 39.7091 58.8345 38.7491L77.997 4.38545C78.4533 3.64363 78.953 2.98908 79.431 2.46545C79.3223 2.31272 79.2137 2.22545 79.1485 2.15999C75.6289 -0.654551 71.0012 -1.46182 67.3729 4.38545L48.2104 38.7491C47.6673 39.7091 47.3848 40.1236 47.1676 41.2364C46.2551 45.5782 48.167 49.92 53.3595 49.92Z" fill="black"/>
<path fill-rule="evenodd" clip-rule="evenodd" d="M83.1246 8.46545L88.4258 17.9782L76.8458 38.7491C76.3026 39.7091 76.0202 40.1236 75.8029 41.2364C74.9121 45.4909 76.7589 49.7455 81.6907 49.8982H74.0865H71.0666C66.1348 49.7236 64.288 45.4909 65.1788 41.2364C65.4178 40.1236 65.7002 39.7091 66.2217 38.7491L83.1246 8.46545Z" fill="black"/>
</svg>
