<svg width="185" height="66" viewBox="0 0 185 66" fill="none" xmlns="http://www.w3.org/2000/svg">
<path fill-rule="evenodd" clip-rule="evenodd" d="M59.112 9.683C63.2488 9.683 67.4658 9.683 71.5523 9.683C74.9202 9.683 77.6504 12.3859 77.6504 15.7202C77.6504 18.5406 75.6967 20.9092 73.056 21.5721C74.5079 22.0244 75.8552 22.822 76.6278 23.8866C77.4622 25.0361 77.8943 26.7612 77.8943 28.2977C77.8943 32.1288 74.8296 35.2345 71.0491 35.2345C67.0742 35.2345 63.09 35.2345 59.112 35.2345V9.683V9.683ZM84.0395 35.0019H87.8522L91.3724 26.4949L96.7848 13.4142L101.327 24.391H94.8646L93.7582 27.3182H102.538L105.717 35.0019H109.53L98.5578 9.75525H96.7848H95.0117L84.0395 35.0019ZM111.574 9.63327H131.027V12.4994H123.069V35.0019H119.532V12.4994H111.574V9.63327V9.63327ZM148.559 26.4653L152.462 19.6038L158.133 9.63327H154.357L152.462 12.9659L146.79 22.9365L141.119 12.9659L139.223 9.63327H135.447L141.119 19.6038L145.022 26.4653V35.0019H148.559V26.4653V26.4653ZM164.855 9.63327C168.992 9.63327 173.209 9.63327 177.295 9.63327C180.663 9.63327 183.393 12.3362 183.393 15.6705C183.393 16.4932 183.227 17.2775 182.926 17.9922C181.979 20.1321 180.717 21.6604 176.418 23.3692L179.098 27.0056L185 35.1848H180.637L175.439 27.9813L172.371 23.7291C172.371 22.7529 172.371 22.5085 172.371 21.5323C176.277 21.136 179.628 19.9699 179.628 15.4331C179.628 13.6895 177.866 12.263 176.123 12.263H168.651V23.6284V32.4481V35.1848H164.855V9.63327V9.63327ZM14.4322 11.6447C17.9766 11.6447 21.5898 11.6447 25.0911 11.6447C27.9768 11.6447 30.316 13.9606 30.316 16.8173C30.316 19.2339 28.642 21.2633 26.3794 21.8313C27.6235 22.2189 28.7778 22.9022 29.4398 23.8144C30.1547 24.7992 30.5249 26.2772 30.5249 27.5938C30.5249 30.8763 27.8991 33.5372 24.66 33.5372C21.2543 33.5372 17.8406 33.5372 14.4322 33.5372V11.6447ZM0.813123 0.112427H44.9571V45.0695H0V0.112427H0.813123V0.112427ZM59.2446 0.112427H184.868V1.73867H59.2446V0.112427V0.112427ZM59.2446 43.4432H184.868V45.0695H59.2446V43.4432V43.4432ZM32.6085 65.1968C33.069 65.1968 33.4359 65.1565 33.8808 65.0255L33.7716 63.312C33.4359 63.4631 33.1549 63.5134 32.8193 63.5134C31.8123 63.5134 31.0553 62.7978 31.0553 61.5379C31.0553 60.1569 31.8435 59.6227 32.7022 59.6227C33.0691 59.6227 33.4437 59.6832 33.7794 59.8344L33.8965 58.1813C33.6076 58.0705 33.1783 57.9798 32.6085 57.9798C30.7117 57.9798 29.2288 59.1994 29.2288 61.5782C29.2288 64.1586 30.6961 65.1968 32.6085 65.1968V65.1968ZM36.7054 65.1061H40.858V63.5841H38.4461V62.3342H40.6161V60.8323H38.4461V59.5824H40.7331V58.0705H36.7054V65.1061ZM43.6825 65.1061H45.4856V62.6366H45.8447C46.2896 62.6366 46.5004 62.7777 46.6643 63.5337L46.9922 65.1061H48.8343L48.1943 62.7877C48.0069 62.1023 47.7025 61.8201 47.2342 61.6689V61.6488C48.1474 61.4471 48.5221 60.8323 48.5221 59.9352C48.5221 58.3224 47.2029 58.0705 45.79 58.0705H43.6825V65.1061V65.1061ZM45.4622 61.1448V59.6025H45.6652C46.4223 59.6025 46.7892 59.8244 46.7892 60.3485C46.7892 60.9431 46.3599 61.1448 45.6652 61.1448H45.4622V61.1448ZM52.5332 65.1061H54.3206V59.6362L55.6865 59.6664V58.0721H51.1983V59.6664L52.5332 59.6362V65.1061V65.1061ZM58.3706 65.1061H60.1659V58.0705H58.3706V65.1061ZM63.1856 65.1061H64.9575V62.4652H67.0103V60.9331H64.9575V59.5824H67.0806V58.0705H63.1856V65.1061ZM69.8661 65.1061H71.6615V58.0705H69.8661V65.1061ZM77.9283 65.1968C78.3888 65.1968 78.7557 65.1565 79.2007 65.0255L79.0913 63.312C78.7557 63.4631 78.4747 63.5134 78.1391 63.5134C77.1321 63.5134 76.375 62.7978 76.375 61.5379C76.375 60.1569 77.1634 59.6227 78.022 59.6227C78.3888 59.6227 78.7635 59.6832 79.0992 59.8344L79.2162 58.1813C78.9274 58.0705 78.4981 57.9798 77.9283 57.9798C76.0315 57.9798 74.5485 59.1994 74.5485 61.5782C74.5485 64.1586 76.0159 65.1968 77.9283 65.1968V65.1968ZM81.6349 65.1061H83.3989L83.7893 63.7051H85.647L85.9983 65.1061H87.9029L85.8733 58.0705H83.6878L81.6349 65.1061ZM84.1561 62.1729L84.2498 61.81C84.4137 61.1649 84.6869 60.0058 84.7494 59.6227H84.765C84.8274 60.0058 85.0773 61.185 85.2412 61.8L85.3348 62.1729H84.1561V62.1729ZM90.9694 65.1061H92.7569V59.6362L94.1229 59.6664V58.0721H89.6346V59.6664L90.9694 59.6362V65.1061ZM96.8069 65.1061H98.6023V58.0705H96.8069V65.1061ZM104.37 65.2472C106.18 65.2472 107.273 63.8865 107.273 61.5782C107.273 59.3909 106.157 57.9293 104.377 57.9293C102.652 57.9293 101.52 59.3909 101.52 61.5278C101.52 63.8965 102.676 65.2472 104.37 65.2472ZM104.424 63.6042C103.768 63.6042 103.316 62.9087 103.316 61.6185C103.316 60.2174 103.753 59.532 104.354 59.532C105.01 59.532 105.462 60.2275 105.462 61.6488C105.462 62.9692 105.049 63.6042 104.424 63.6042V63.6042ZM110.191 65.1061H111.831V63.3522C111.831 62.7575 111.823 60.8021 111.792 60.3787H111.807C112.018 61.2657 112.385 62.6164 112.744 63.6446L113.251 65.1061H115.632V58.0705H113.993V59.5723C113.993 60.4492 114.016 62.2334 114.055 62.7676H114.04C113.938 62.2737 113.524 60.8121 113.165 59.7537L112.596 58.0705H110.191V65.1061ZM123.991 65.1968C124.451 65.1968 124.818 65.1565 125.263 65.0255L125.154 63.312C124.818 63.4631 124.537 63.5134 124.202 63.5134C123.195 63.5134 122.437 62.7978 122.437 61.5379C122.437 60.1569 123.226 59.6227 124.084 59.6227C124.451 59.6227 124.826 59.6832 125.162 59.8344L125.279 58.1813C124.99 58.0705 124.561 57.9798 123.991 57.9798C122.094 57.9798 120.611 59.1994 120.611 61.5782C120.611 64.1586 122.078 65.1968 123.991 65.1968V65.1968ZM128.088 65.1061H132.24V63.5841H129.828V62.3342H131.998V60.8323H129.828V59.5824H132.115V58.0705H128.088V65.1061V65.1061ZM135.065 65.1061H136.704V63.3522C136.704 62.7575 136.696 60.8021 136.665 60.3787H136.681C136.891 61.2657 137.258 62.6164 137.617 63.6446L138.125 65.1061H140.505V58.0705H138.866V59.5723C138.866 60.4492 138.889 62.2334 138.929 62.7676H138.913C138.811 62.2737 138.398 60.8121 138.039 59.7537L137.469 58.0705H135.065V65.1061ZM144.524 65.1061H146.312V59.6362L147.678 59.6664V58.0721H143.189V59.6664L144.524 59.6362V65.1061ZM150.362 65.1061H154.514V63.5841H152.102V62.3342H154.272V60.8323H152.102V59.5824H154.389V58.0705H150.362V65.1061V65.1061ZM157.339 65.1061H159.142V62.6366H159.501C159.946 62.6366 160.157 62.7777 160.321 63.5337L160.648 65.1061H162.491L161.85 62.7877C161.663 62.1023 161.359 61.8201 160.89 61.6689V61.6488C161.804 61.4471 162.178 60.8323 162.178 59.9352C162.178 58.3224 160.859 58.0705 159.446 58.0705H157.339V65.1061V65.1061ZM159.119 61.1448V59.6025H159.321C160.079 59.6025 160.445 59.8244 160.445 60.3485C160.445 60.9431 160.016 61.1448 159.321 61.1448H159.119V61.1448ZM43.3308 1.73867H1.6263V43.4432H43.3308V1.73867ZM17.685 13.8978H24.0865C25.5805 13.8978 27.09 15.1201 27.09 16.6139C27.09 20.5011 23.9318 21.2127 20.8723 21.2127V23.5117H22.3613H22.9492H23.5371C25.6492 23.5117 27.3773 25.2398 27.3773 27.352V27.3521C27.3773 29.4643 25.6492 31.1924 23.5371 31.1924H22.9492H22.3613H20.8723H17.9202H17.685V13.8978V13.8978ZM62.9085 12.3127H70.3798C72.1234 12.3127 73.8853 13.7392 73.8853 15.4829C73.8853 20.0196 70.1992 20.8501 66.6284 20.8501V23.5334H68.3662H69.0524H69.7386C72.2038 23.5334 74.2207 25.5503 74.2207 28.0155V28.0156C74.2207 30.4808 72.2038 32.4977 69.7386 32.4977H69.0524H68.3662H66.6284H63.1829H62.9085V12.3127V12.3127Z" fill="black"/>
</svg>
