<svg width="140" height="79" viewBox="0 0 140 79" fill="none" xmlns="http://www.w3.org/2000/svg">
<path d="M51.2693 47.8971H61.3905C56.4644 47.8971 54.6224 43.7485 55.4917 39.6C55.7193 38.5368 55.9884 38.1407 56.4851 37.2234L74.7405 4.38956C75.1751 3.68077 75.6512 3.05536 76.1065 2.55504C76.0031 2.40911 75.8996 2.32572 75.8375 2.26318C72.5051 -0.405226 68.0758 -1.19741 64.6193 4.38956L46.364 37.2443C45.8465 38.1616 45.5775 38.5576 45.3705 39.6208C44.5219 43.7694 46.3433 47.8971 51.2693 47.8971Z" fill="#226CB4"/>
<path d="M57.4159 53.3589C57.2297 53.1922 57.0641 52.9003 56.9399 52.4625H56.3604V58.8208H56.9399C57.0641 58.383 57.209 58.0912 57.3952 57.9244C57.5815 57.7576 57.8506 57.6743 58.2231 57.6743H65.7778V76.3531C65.7778 76.7283 65.695 77.0202 65.5294 77.2078C65.3638 77.3954 65.0741 77.5622 64.6394 77.6664V78.2501H72.2769V77.6664C71.8422 77.5413 71.5524 77.3954 71.3869 77.2078C71.2213 77.0202 71.1385 76.7283 71.1385 76.3531V57.6743H78.6931C79.0657 57.6743 79.3348 57.7576 79.521 57.9244C79.7073 58.0912 79.8729 58.383 79.9764 58.8208H80.5559V52.4625H79.9764C79.8522 52.9003 79.7073 53.1922 79.521 53.3589C79.3348 53.5257 79.045 53.6091 78.6931 53.6091H58.2438C57.892 53.6091 57.6229 53.5257 57.4159 53.3589Z" fill="#226CB4"/>
<path d="M84.6959 47.8971H94.8171C90.1187 47.7303 88.3594 43.686 89.208 39.6208C89.4357 38.5576 89.7047 38.1616 90.2015 37.2443L92.9543 32.2827L87.904 23.1935L80.101 37.2443C79.5836 38.1616 79.3145 38.5576 79.1075 39.6208C78.2589 43.686 79.9975 47.7303 84.6959 47.8971Z" fill="#226CB4"/>
<path d="M36.1799 77.6456C35.3727 77.4371 34.9794 77.0827 34.9794 76.5407C34.9794 76.2697 35.1036 75.8945 35.3313 75.3941L36.9871 71.9127H48.019L49.7162 75.3941C49.9645 75.8945 50.068 76.2697 50.068 76.5199C50.068 77.1453 49.6748 77.4997 48.8883 77.6456V78.2293H57.9125V77.6456C57.4157 77.5414 57.0225 77.3538 56.712 77.0619C56.4222 76.77 56.0704 76.228 55.6771 75.415L46.3631 56.4443C46.1355 56.0065 46.032 55.6104 46.032 55.256C46.032 54.7557 46.3838 54.4013 47.0876 54.1928V53.6091H38.4152V54.1928C39.119 54.443 39.4501 54.8183 39.4501 55.3811C39.4501 55.7355 39.3052 56.215 39.0155 56.8196L30.012 75.7277C29.7015 76.4156 29.4118 76.8951 29.1634 77.1244C28.915 77.3746 28.5425 77.5205 28.0664 77.6248V78.2085H36.1592V77.6456H36.1799ZM42.5548 59.8632L46.4873 68.5564H38.5601L42.5548 59.8632Z" fill="#226CB4"/>
<path d="M110.154 54.1928V53.6091H100.716V54.1928C101.089 54.2554 101.378 54.3805 101.606 54.5889C101.813 54.7766 101.917 55.0267 101.917 55.2977C101.917 55.5479 101.668 56.0274 101.192 56.7362L96.6386 63.3655L92.23 56.7362C91.7333 56.0065 91.4849 55.527 91.4849 55.3186C91.4849 54.714 91.8781 54.3388 92.6853 54.2137V53.63H83.0195V54.2137C83.5577 54.2971 84.013 54.4847 84.4063 54.8182C84.7995 55.1518 85.3377 55.7981 86 56.757L93.9065 67.9518V76.374C93.9065 76.7492 93.8237 77.0202 93.6581 77.2287C93.4926 77.4163 93.2028 77.5831 92.7681 77.6873V78.271H100.406V77.6873C99.9916 77.5622 99.6812 77.4163 99.5156 77.2287C99.35 77.041 99.2672 76.7492 99.2672 76.374V67.9518L107.174 56.757C107.857 55.7981 108.374 55.1518 108.767 54.8182C109.161 54.4639 109.616 54.2554 110.154 54.1928Z" fill="#226CB4"/>
<path d="M21.133 77.8124C22.2093 77.5205 23.1407 77.0619 23.9479 76.4365C25.5416 75.1648 26.3488 73.3928 26.3488 71.1414C26.3488 68.3062 24.9828 66.3674 22.23 65.3251C24.4447 64.2619 25.5416 62.5316 25.5416 60.1342C25.5416 57.987 24.8172 56.3401 23.3684 55.1935C22.644 54.6098 21.7954 54.2137 20.8226 53.9635C19.8498 53.7134 18.5665 53.6091 16.9935 53.6091H0.456055V54.1928C0.890706 54.3179 1.18047 54.4639 1.34606 54.6515C1.51164 54.8391 1.59443 55.131 1.59443 55.5062V76.3323C1.59443 76.7075 1.51164 76.9994 1.34606 77.187C1.18047 77.3746 0.890706 77.5414 0.456055 77.6456V78.2293H17.1591C18.7321 78.2502 20.0568 78.1042 21.133 77.8124ZM6.93443 57.6534H16.2898C17.7179 57.6534 18.7114 57.8827 19.3116 58.3205C19.9119 58.7583 20.2016 59.488 20.2016 60.5303C20.2016 61.531 19.8912 62.2814 19.2495 62.7609C18.6907 63.1779 17.6972 63.3863 16.2691 63.3863H6.91373V57.6534H6.93443ZM6.93443 74.185V67.4515H16C17.6972 67.4515 18.9184 67.6808 19.6428 68.1603C20.4914 68.7231 20.9054 69.5987 20.9054 70.8287C20.9054 72.0586 20.4914 72.9342 19.6428 73.4971C18.8977 73.9557 17.6765 74.2059 16 74.2059H6.93443V74.185Z" fill="#226CB4"/>
<path d="M138.096 77.0827C137.702 76.7283 137.102 75.9778 136.254 74.7896L131.493 68.0143C135.922 67.3264 138.137 64.9707 138.137 60.9472C138.137 59.7589 137.909 58.6541 137.475 57.6117C136.999 56.5485 136.295 55.6938 135.364 55.0684C134.556 54.5264 133.604 54.1511 132.507 53.9218C131.41 53.7133 129.941 53.5883 128.078 53.5883H112.762V54.172C113.196 54.2971 113.486 54.443 113.652 54.6306C113.817 54.8182 113.9 55.1101 113.9 55.4853V76.3322C113.9 76.6866 113.817 76.9785 113.652 77.1661C113.486 77.3537 113.196 77.5205 112.762 77.6247V78.2085H120.399V77.6247C119.985 77.5205 119.695 77.3746 119.509 77.1661C119.344 76.9785 119.261 76.6866 119.261 76.3322V68.1811H125.739L130.727 75.415C131.286 76.2488 131.576 76.77 131.576 76.9785C131.576 77.312 131.265 77.5205 130.665 77.6247V78.2085H139.503V77.6247C138.965 77.6247 138.489 77.4163 138.096 77.0827ZM130.106 64.0117C129.61 64.0951 128.74 64.1159 127.519 64.1159H119.281V57.6534H127.519C128.761 57.6534 129.63 57.6743 130.106 57.7576C130.582 57.8202 131.038 57.987 131.472 58.2163C132.383 58.7166 132.838 59.5922 132.838 60.8847C132.838 62.1772 132.383 63.0736 131.472 63.5531C131.079 63.8032 130.603 63.9492 130.106 64.0117Z" fill="#226CB4"/>
<path fill-rule="evenodd" clip-rule="evenodd" d="M79.6457 8.30884L84.696 17.3981L73.6641 37.2443C73.1467 38.1616 72.8776 38.5577 72.6706 39.6209C71.822 43.686 73.5813 47.7512 78.2797 47.8971H71.0355H68.1585C63.4601 47.7303 61.7008 43.686 62.5494 39.6209C62.7771 38.5577 63.0462 38.1616 63.5429 37.2443L79.6457 8.30884Z" fill="#FFCB00"/>
</svg>
