<svg width="143" height="113" viewBox="0 0 143 113" fill="none" xmlns="http://www.w3.org/2000/svg">
<g clip-path="url(#clip0_601_1565)">
<path d="M72.024 11.1527L66.5052 16.694L54.0704 29.1794L66.4353 41.5947L70.9063 37.1055L63.0123 29.1794L70.9063 21.2533L82.0138 10.1006L101.085 29.2495L82.0138 48.3985L76.4251 42.7871L71.9542 47.2762L82.0138 57.3768L110.027 29.2495L82.0836 1.05214L72.024 11.1527ZM71.4651 21.7443L64.0602 29.1794L71.4651 36.6145L78.8701 29.1794L71.4651 21.7443ZM76.984 42.1558L82.0836 47.2762L100.107 29.1794L82.0836 11.0826L76.984 16.203L89.9077 29.1794L76.984 42.1558ZM71.4651 10.6617L82.0836 0L111.145 29.1794L82.0836 58.3588L71.4651 47.6971L60.8467 58.3588L31.8555 29.1794L32.1349 28.8988L60.8467 0L71.4651 10.6617ZM66.5052 15.6418L70.9761 11.1527L60.8467 1.05214L32.9033 29.1794L60.9165 57.3066L70.9761 47.2061L88.8599 29.1794L76.4949 16.7641L72.024 21.2533L79.918 29.1794L72.024 37.1055L66.5052 42.6468L60.9165 48.2582L41.8452 29.1794L60.9165 10.0304L66.5052 15.6418ZM53.302 28.8988L65.9463 16.203L60.8467 11.0826L42.8931 29.1794L60.9165 47.2762L66.0162 42.1558L53.0225 29.1794L53.302 28.8988Z" fill="black"/>
<path fill-rule="evenodd" clip-rule="evenodd" d="M14.4607 90.1334C14.7401 89.7827 14.9497 89.432 15.1593 89.0813C15.4387 88.45 15.6483 87.7486 15.6483 87.0472C15.6483 85.995 15.299 84.9429 14.5305 84.1012L2.44504 69.8622C2.09575 70.2129 1.88617 70.5636 1.74646 70.9845C1.53688 71.5456 1.39717 72.1067 1.39717 72.6679C1.39717 73.9305 1.95603 75.2632 2.86419 76.3855L14.4607 90.1334ZM0.558867 86.4159C0.8383 86.4159 1.11773 86.6964 1.11773 86.977V89.5723C1.95603 90.6244 3.00391 91.396 4.05178 91.9572C5.23937 92.5183 6.56668 92.7989 7.75427 92.7989C10.4089 92.7989 12.4348 92.0273 13.6922 90.9752L2.02589 77.0869C0.908158 75.8243 0.279433 74.211 0.279433 72.6679C0.279433 71.9665 0.41915 71.1949 0.698583 70.5636C0.978017 69.8622 1.46702 69.2309 2.09575 68.7399C3.3532 67.6878 5.30923 66.9863 8.03371 66.9863C9.36102 66.9863 10.6185 67.2669 11.8061 67.828C12.6444 68.1788 13.4128 68.6698 14.1114 69.301V67.6878C14.1114 67.4072 14.3908 67.1266 14.6702 67.1266C14.9497 67.1266 15.2291 67.4072 15.2291 67.6878V73.4395C15.2291 73.72 14.9497 74.0006 14.6702 74.0006C14.3908 74.0006 14.1114 73.72 14.1114 73.4395V70.774C13.3429 70.0025 12.3649 69.301 11.3869 68.81C10.339 68.319 9.15144 68.0385 8.03371 68.0385C5.93796 68.0385 4.40107 68.4593 3.3532 69.1608L15.3688 83.3997C16.277 84.4519 16.6961 85.7846 16.6961 87.0472C16.6961 87.8889 16.4866 88.7306 16.1373 89.5723C15.788 90.3439 15.2291 91.1154 14.4607 91.7467C12.9937 93.0093 10.7582 93.851 7.75427 93.851C6.35711 93.851 4.95994 93.5704 3.56277 92.9392C2.72447 92.5183 1.88617 91.9572 1.11773 91.1856V93.5704C1.11773 93.851 0.8383 94.1316 0.558867 94.1316C0.279433 94.1316 0 93.851 0 93.5704V86.977C0 86.6964 0.279433 86.4159 0.558867 86.4159Z" fill="black"/>
<path fill-rule="evenodd" clip-rule="evenodd" d="M128.959 92.5884H132.521V68.7399H128.959V92.5884ZM142.441 88.6604C142.721 88.6604 143 88.941 143 89.2216V93.1496V93.2197C143 93.2197 143 93.2197 142.93 93.2197C142.93 93.2197 142.93 93.2197 142.86 93.2197H126.444C126.164 93.2197 125.885 92.9392 125.885 92.6586C125.885 92.378 126.164 92.0974 126.444 92.0974H128.33V68.7399H126.863C126.583 68.7399 126.304 68.4593 126.304 68.1788C126.304 67.8982 126.583 67.6176 126.863 67.6176H135.595C135.875 67.6176 136.154 67.8982 136.154 68.1788C136.154 68.4593 135.875 68.7399 135.595 68.7399H134.128V92.5884H142.441V89.1514C141.882 88.8709 142.092 88.6604 142.441 88.6604Z" fill="black"/>
<path fill-rule="evenodd" clip-rule="evenodd" d="M38.911 85.4339L33.8113 69.1607L28.7117 85.4339H38.911ZM45.9667 92.5884L38.5617 68.7399H34.8592L42.2642 92.5884H45.9667ZM30.1787 68.2489C30.1787 67.9683 30.4581 67.6877 30.7376 67.6877H38.9808C39.2603 67.6877 39.4699 67.8982 39.5397 68.1086L47.1543 92.5884H48.6213C48.9007 92.5884 49.1802 92.869 49.1802 93.1496C49.1802 93.4301 48.9007 93.7107 48.6213 93.7107H38.8411C38.5617 93.7107 38.2823 93.4301 38.2823 93.1496C38.2823 92.869 38.5617 92.5884 38.8411 92.5884H41.0766L39.1904 86.486H39.1206H28.3624L26.4762 92.5884H28.5021C28.7815 92.5884 29.061 92.869 29.061 93.1496C29.061 93.4301 28.7815 93.7107 28.5021 93.7107H22.7737C22.4943 93.7107 22.2148 93.4301 22.2148 93.1496C22.2148 92.869 22.4943 92.5884 22.7737 92.5884H25.3585L32.7635 68.7399H30.6677C30.3883 68.7399 30.1787 68.5295 30.1787 68.2489Z" fill="black"/>
<path fill-rule="evenodd" clip-rule="evenodd" d="M109.888 85.4339L104.788 69.1607L99.6882 85.4339H109.888ZM116.943 92.5884L109.538 68.7399H105.836L113.241 92.5884H116.943ZM101.155 68.2489C101.155 67.9683 101.435 67.6877 101.714 67.6877H109.957C110.237 67.6877 110.446 67.8982 110.516 68.1086L118.131 92.5884H119.598C119.877 92.5884 120.157 92.869 120.157 93.1496C120.157 93.4301 119.877 93.7107 119.598 93.7107H109.818C109.538 93.7107 109.259 93.4301 109.259 93.1496C109.259 92.869 109.538 92.5884 109.818 92.5884H112.053L110.167 86.486H110.097H99.3389L97.4528 92.5884H99.4787C99.7581 92.5884 100.038 92.869 100.038 93.1496C100.038 93.4301 99.7581 93.7107 99.4787 93.7107H93.7503C93.4708 93.7107 93.1914 93.4301 93.1914 93.1496C93.1914 92.869 93.4708 92.5884 93.7503 92.5884H96.335L103.74 68.7399H101.644C101.365 68.7399 101.155 68.5295 101.155 68.2489Z" fill="black"/>
<path fill-rule="evenodd" clip-rule="evenodd" d="M80.756 68.7399V92.5884H83.9695V68.7399H80.756ZM59.1698 68.7399L70.2074 91.7467L71.884 87.5382L62.9421 68.7399H59.1698ZM54.4893 93.1496C54.4893 92.869 54.7687 92.5884 55.0481 92.5884H57.7726V68.7399H55.8864C55.607 68.7399 55.3276 68.4593 55.3276 68.1788C55.3276 67.8982 55.607 67.6176 55.8864 67.6176H63.2914C63.5708 67.6176 63.7804 67.828 63.8503 68.0385L72.5127 86.1353L79.7081 68.0385C79.778 67.828 79.9875 67.6176 80.267 67.6176H87.183C87.4624 67.6176 87.7418 67.8982 87.7418 68.1788C87.7418 68.4593 87.4624 68.7399 87.183 68.7399H85.0872V92.5884H85.6461C85.9255 92.5884 86.2049 92.869 86.2049 93.1496C86.2049 93.4302 85.9255 93.7107 85.6461 93.7107H77.5425C77.2631 93.7107 76.9836 93.4302 76.9836 93.1496C76.9836 92.869 77.2631 92.5884 77.5425 92.5884H79.7081V71.0546L70.3471 94.4823L58.8903 70.5636V92.5884H61.6148C61.8942 92.5884 62.1737 92.869 62.1737 93.1496C62.1737 93.4302 61.8942 93.7107 61.6148 93.7107H55.0481C54.7687 93.7107 54.4893 93.4302 54.4893 93.1496Z" fill="black"/>
<path d="M27.1055 104.513H30.319V105.074H28.9916V112.719H28.3629V105.074H27.1055V104.513Z" fill="black"/>
<path d="M101.154 112.719V105.074H99.8271V104.513H103.041V105.074H101.713V112.719H101.154Z" fill="black"/>
<path d="M43.5216 108.932V106.266C43.5216 106.266 43.5216 105.074 42.1943 105.074C40.867 105.074 40.867 106.266 40.867 106.266V108.932H43.5216ZM40.2383 112.719V106.266C40.2383 106.266 40.2383 104.443 42.1943 104.443C44.0805 104.443 44.1503 106.266 44.1503 106.266V112.719H43.5216V109.563H40.867V112.719H40.2383Z" fill="black"/>
<path d="M51.4854 112.719V106.266C51.4854 106.266 51.4854 104.443 53.4414 104.443C55.3276 104.443 55.3974 106.266 55.3974 106.266V112.719H54.7687V106.266C54.7687 106.266 54.7687 105.074 53.4414 105.074C52.1141 105.074 52.1141 106.266 52.1141 106.266V112.719H51.4854Z" fill="black"/>
<path d="M62.8027 112.719V106.266C62.8027 106.266 62.8027 104.443 64.7588 104.443C66.6449 104.443 66.7148 106.266 66.7148 106.266V112.719H66.0861V106.266C66.0861 106.266 66.0861 105.074 64.7588 105.074C63.4315 105.074 63.4315 106.266 63.4315 106.266V112.719H62.8027Z" fill="black"/>
<path d="M36.466 106.266C36.466 106.266 36.466 105.074 35.1386 105.074C33.8113 105.074 33.8113 106.266 33.8113 106.266V106.757V108.02C33.8113 108.09 33.8812 109.212 35.1386 109.212C36.3262 109.212 36.466 107.248 36.466 106.266ZM33.1826 112.719V108.02V106.757V106.266C33.1826 106.266 33.1826 104.443 35.1386 104.443C37.0248 104.443 37.0947 106.266 37.0947 106.266C37.0947 107.459 36.8851 109.212 35.8372 109.703L37.3043 112.579L36.7454 112.86L35.2085 109.844H35.1386C34.5099 109.844 34.0908 109.633 33.8113 109.423V112.79H33.1826V112.719Z" fill="black"/>
<path d="M115.126 106.266C115.126 106.266 115.126 105.074 113.799 105.074C112.471 105.074 112.471 106.266 112.471 106.266V106.757V108.02C112.471 108.09 112.541 109.212 113.799 109.212C114.986 109.212 115.126 107.248 115.126 106.266ZM111.843 112.719V108.02V106.757V106.266C111.843 106.266 111.843 104.443 113.799 104.443C115.685 104.443 115.755 106.266 115.755 106.266C115.755 107.459 115.545 109.212 114.497 109.703L115.964 112.579L115.406 112.86L113.869 109.844H113.799C113.17 109.844 112.751 109.633 112.471 109.423V112.79H111.843V112.719Z" fill="black"/>
<path d="M93.1914 112.719V106.266C93.1914 106.266 93.1914 104.443 95.1474 104.443C97.0336 104.443 97.1035 106.266 97.1035 106.266V112.719H96.4049V106.266C96.4049 106.266 96.4049 105.074 95.0776 105.074C93.7503 105.074 93.7503 106.266 93.7503 106.266V112.719H93.1914Z" fill="black"/>
<path d="M70.2772 107.599V109.844V111.176C70.2772 111.176 70.2772 112.369 71.6045 112.369C72.9318 112.369 72.9318 111.176 72.9318 111.176V109.844V109.002H71.6045V108.371H73.5605V108.651V108.932V109.773V111.106C73.5605 111.106 73.5605 112.93 71.6045 112.93C69.7183 112.93 69.6484 111.106 69.6484 111.106V109.773V107.529V106.196C69.6484 106.196 69.6484 104.372 71.6045 104.372C73.4906 104.372 73.5605 106.196 73.5605 106.196V106.266H72.9318V106.196C72.9318 106.196 72.9318 105.004 71.6045 105.004C70.2772 105.004 70.2772 106.196 70.2772 106.196V107.599V107.599Z" fill="black"/>
<path d="M81.3846 107.599V109.844V111.176C81.3846 111.176 81.3846 112.369 82.7119 112.369C84.0392 112.369 84.0392 111.176 84.0392 111.176V111.106H84.6679V111.176C84.6679 111.176 84.6679 113 82.7119 113C80.8257 113 80.7559 111.176 80.7559 111.176V109.844V107.599V106.266C80.7559 106.266 80.7559 104.443 82.7119 104.443C84.5981 104.443 84.6679 106.266 84.6679 106.266V106.336H84.0392V106.266C84.0392 106.266 84.0392 105.074 82.7119 105.074C81.3846 105.074 81.3846 106.266 81.3846 106.266V107.599Z" fill="black"/>
<path d="M87.952 107.599V108.371H89.8381V109.002H87.952V109.914V111.246C87.952 111.246 87.952 112.439 89.2793 112.439H90.1874V113.07H89.2793H89.2094C87.3931 113 87.3232 111.246 87.3232 111.246V109.914V107.669V106.336C87.3232 106.336 87.3232 104.583 89.2094 104.513H89.2793H90.1874V105.144H89.2793C87.952 105.144 87.952 106.336 87.952 106.336V107.599V107.599Z" fill="black"/>
<path d="M106.603 107.599V108.371H108.49V109.002H106.603V109.914V111.246C106.603 111.246 106.603 112.439 107.931 112.439H108.839V113.07H107.931H107.861C106.044 113 105.975 111.246 105.975 111.246V109.914V107.669V106.336C105.975 106.336 105.975 104.583 107.861 104.513H107.931H108.839V105.144H107.931C106.603 105.144 106.603 106.336 106.603 106.336V107.599Z" fill="black"/>
<path d="M47.993 104.793H47.3643V112.719H47.993V104.793Z" fill="black"/>
<path d="M59.449 104.793H58.8203V112.719H59.449V104.793Z" fill="black"/>
</g>
<defs>
<clipPath id="clip0_601_1565">
<rect width="143" height="113" fill="white"/>
</clipPath>
</defs>
</svg>
