<svg width="797" height="818" viewBox="0 0 797 818" fill="none" xmlns="http://www.w3.org/2000/svg">
<path d="M51.4202 818H224.692C140.359 818 108.823 746.921 123.705 675.842C127.603 657.626 132.209 650.839 140.714 635.123L453.24 72.5636C460.681 60.4194 468.831 49.704 476.626 41.1316C474.855 38.6314 473.083 37.2026 472.02 36.1311C414.972 -9.58806 339.143 -23.1609 279.969 72.5636L-32.5581 635.481C-41.4165 651.196 -46.0229 657.983 -49.5663 676.199C-64.0941 747.278 -32.9123 818 51.4202 818Z" fill="#F2F2F2"/>
<path d="M623.158 818H796.34C715.946 815.137 685.843 745.701 700.363 675.907C704.259 657.653 708.863 650.853 717.363 635.104L764.466 549.92L678.052 393.868L544.535 635.104C535.681 650.853 531.077 657.653 527.536 675.907C513.015 745.701 542.764 815.137 623.158 818Z" fill="#F2F2F2"/>
<path fill-rule="evenodd" clip-rule="evenodd" d="M536.685 140.896L623.027 296.356L434.419 635.799C425.572 651.487 420.972 658.262 417.433 676.446C402.925 745.975 433.003 815.504 513.33 818H389.478H340.291C259.965 815.147 229.886 745.975 244.395 676.446C248.287 658.262 252.887 651.487 261.38 635.799L536.685 140.896Z" fill="#F2F2F2"/>
</svg>
