<svg width="195" height="187" viewBox="0 0 195 187" fill="none" xmlns="http://www.w3.org/2000/svg">
<g opacity="0.3">
<path d="M23.8961 186.977H63.5485C44.2494 186.977 37.0325 170.711 40.4382 154.445C41.3302 150.276 42.3844 148.723 44.3305 145.127L115.851 16.3875C117.554 13.6083 119.419 11.1561 121.203 9.19439C120.797 8.62222 120.392 8.29526 120.149 8.05004C107.093 -2.41258 89.7402 -5.51867 76.1984 16.3875L4.67805 145.209C2.65083 148.805 1.59668 150.358 0.785797 154.527C-2.53884 170.793 4.59697 186.977 23.8961 186.977Z" fill="white"/>
<path d="M154.736 186.977H194.368C175.97 186.322 169.081 170.432 172.404 154.46C173.296 150.283 174.349 148.726 176.294 145.122L187.074 125.628L167.298 89.9166L136.743 145.122C134.717 148.726 133.664 150.283 132.853 154.46C129.53 170.432 136.338 186.322 154.736 186.977Z" fill="white"/>
<path fill-rule="evenodd" clip-rule="evenodd" d="M134.947 32.0251L154.706 67.6013L111.544 145.281C109.519 148.872 108.467 150.422 107.657 154.583C104.337 170.495 111.22 186.406 129.602 186.977H101.259H90.0032C71.6208 186.325 64.7375 170.495 68.0577 154.583C68.9485 150.422 70.0012 148.872 71.9447 145.281L134.947 32.0251Z" fill="white"/>
</g>
</svg>
