<svg width="804" height="773" viewBox="0 0 804 773" fill="none" xmlns="http://www.w3.org/2000/svg">
<g opacity="0.05">
<path d="M98.7911 773H262.722C182.935 773 153.099 705.753 167.179 638.505C170.867 621.271 175.225 614.851 183.271 599.982L478.949 67.7489C485.989 56.2594 493.7 46.1216 501.075 38.0114C499.399 35.6459 497.723 34.2942 496.717 33.2804C442.744 -9.97408 371.003 -22.8152 315.019 67.7489L19.34 600.32C10.959 615.189 6.601 621.609 3.24864 638.843C-10.4961 706.091 19.0048 773 98.7911 773Z" fill="white"/>
<path d="M639.707 773H803.553C727.494 770.291 699.013 704.598 712.751 638.567C716.437 621.297 720.793 614.863 728.834 599.964L773.398 519.372L691.642 371.732L565.323 599.964C556.946 614.863 552.591 621.297 549.24 638.567C535.502 704.598 563.648 770.291 639.707 773Z" fill="white"/>
<path fill-rule="evenodd" clip-rule="evenodd" d="M557.896 132.398L639.584 279.476L461.143 600.621C452.774 615.464 448.421 621.873 445.074 639.077C431.347 704.858 459.804 770.638 535.801 773H418.626H372.09C296.094 770.301 267.637 704.858 281.363 639.077C285.046 621.873 289.398 615.464 297.433 600.621L557.896 132.398Z" fill="white"/>
</g>
</svg>
