<svg width="135" height="130" viewBox="0 0 135 130" fill="none" xmlns="http://www.w3.org/2000/svg">
<path d="M16.5964 129.868L44.1376 129.868C30.7331 129.868 25.7205 118.57 28.086 107.272C28.7055 104.377 29.4377 103.298 30.7894 100.8L80.4648 11.3821C81.6476 9.45184 82.943 7.74865 84.182 6.38609C83.9004 5.98868 83.6188 5.76158 83.4499 5.59126C74.3821 -1.6757 62.3294 -3.83308 52.9237 11.3821L3.24824 100.857C1.8402 103.355 1.10803 104.433 0.544819 107.329C-1.76436 118.627 3.19193 129.868 16.5964 129.868Z" fill="#F5F5F5"/>
<path d="M107.472 129.868L134.999 129.868C122.221 129.413 117.436 118.376 119.744 107.282C120.363 104.381 121.095 103.3 122.446 100.797L129.933 87.2569L116.198 62.4528L94.9754 100.797C93.5681 103.3 92.8363 104.381 92.2733 107.282C89.9654 118.376 94.6939 129.413 107.472 129.868Z" fill="#F5F5F5"/>
<path fill-rule="evenodd" clip-rule="evenodd" d="M93.7288 22.2435L107.453 46.9534L77.4738 100.907C76.0677 103.401 75.3365 104.478 74.774 107.368C72.468 118.42 77.2488 129.471 90.0166 129.868L70.3306 129.868L62.5125 129.868C49.7447 129.414 44.9638 118.42 47.2699 107.368C47.8886 104.478 48.6198 103.401 49.9697 100.907L93.7288 22.2435Z" fill="#F5F5F5"/>
</svg>
